<svg width="518" height="227" viewBox="0 0 518 227" fill="none" xmlns="http://www.w3.org/2000/svg"><g filter="url(#a)"><path d="M459.211 187.91H53.329c-10.345 0-18.799-7.97-18.799-17.7V53.27c0-9.74 8.465-17.7 18.8-17.7H459.2c10.345 0 18.799 7.97 18.799 17.7v116.94c.011 9.73-8.454 17.7-18.789 17.7z" fill="#fff"/><path d="M205.865 115.805h7.883l-1.487-4.189c-.42-1.261-.826-2.448-1.216-3.559-.36-1.111-.736-2.327-1.126-3.648h-.09a522.69 522.69 0 0 0-1.217 3.603c-.39 1.141-.81 2.343-1.261 3.604l-1.486 4.189zm1.351-17.297h5.496l10.765 28.378h-5.811l-2.522-6.982h-10.586l-2.522 6.982h-5.721l10.901-28.378zm24.782 28.378h-5.315V105.49h4.144l.675 2.837c1.021-1.021 2.118-1.816 3.289-2.387 1.171-.57 2.477-.856 3.919-.856 2.312 0 4.099.646 5.36 1.937 1.261 1.261 1.892 3.063 1.892 5.406v14.459h-5.316v-13.829c0-1.141-.3-2.057-.9-2.748-.571-.72-1.442-1.081-2.613-1.081-.871 0-1.757.241-2.658.721a9.062 9.062 0 0 0-2.477 1.847v15.09zm19.722-19.504a19.843 19.843 0 0 1 4.009-1.667c1.351-.42 2.837-.631 4.459-.631 1.261 0 2.402.15 3.423.451 1.021.27 1.907.72 2.658 1.351.751.631 1.321 1.457 1.712 2.478.42.991.63 2.207.63 3.648v13.874h-4.189l-.54-2.252h-.135c-1.532 1.801-3.709 2.702-6.532 2.702-2.252 0-4.009-.585-5.27-1.756-1.261-1.202-1.892-2.748-1.892-4.64 0-1.201.255-2.237.766-3.108a6.462 6.462 0 0 1 2.072-2.162c.901-.571 1.967-.991 3.198-1.261 1.231-.301 2.568-.451 4.009-.451h3.153v-1.486c0-1.172-.345-1.997-1.036-2.478-.691-.51-1.622-.766-2.793-.766-.841 0-1.741.136-2.702.406-.931.27-1.967.736-3.108 1.396l-1.892-3.648zm11.576 9.954l-2.432.09c-1.982.061-3.364.406-4.144 1.037-.781.6-1.172 1.336-1.172 2.207 0 1.111.331 1.862.991 2.252.661.39 1.427.585 2.298.585s1.696-.21 2.477-.63a5.562 5.562 0 0 0 1.982-1.847v-3.694zm15.991 9.55h-5.315V94.814h5.315v12.883a12.072 12.072 0 0 1 3.063-1.847c1.171-.51 2.432-.766 3.784-.766 1.261 0 2.342.195 3.243.586.931.36 1.697.871 2.297 1.531a5.983 5.983 0 0 1 1.306 2.343c.301.901.451 1.892.451 2.973v14.369h-5.315v-13.333c0-1.532-.316-2.628-.946-3.289-.601-.69-1.502-1.036-2.703-1.036-.871 0-1.757.211-2.658.631a9.332 9.332 0 0 0-2.522 1.757v15.27zm20.161-19.504a19.859 19.859 0 0 1 4.008-1.667c1.352-.42 2.838-.631 4.46-.631 1.261 0 2.402.15 3.423.451 1.021.27 1.907.72 2.658 1.351.751.631 1.321 1.457 1.712 2.478.42.991.63 2.207.63 3.648v13.874h-4.189l-.54-2.252h-.136c-1.531 1.801-3.708 2.702-6.531 2.702-2.252 0-4.009-.585-5.27-1.756-1.262-1.202-1.892-2.748-1.892-4.64 0-1.201.255-2.237.766-3.108a6.462 6.462 0 0 1 2.072-2.162c.901-.571 1.967-.991 3.198-1.261 1.231-.301 2.567-.451 4.009-.451h3.153v-1.486c0-1.172-.345-1.997-1.036-2.478-.691-.51-1.622-.766-2.793-.766-.841 0-1.742.136-2.703.406-.93.27-1.967.736-3.108 1.396l-1.891-3.648zm11.576 9.954l-2.432.09c-1.982.061-3.364.406-4.145 1.037-.78.6-1.171 1.336-1.171 2.207 0 1.111.331 1.862.991 2.252.661.39 1.427.585 2.298.585.87 0 1.696-.21 2.477-.63a5.57 5.57 0 0 0 1.982-1.847v-3.694zm24.549-22.522h5.315v32.072h-3.963l-.586-2.342h-.18a8.854 8.854 0 0 1-2.523 2.027c-.991.51-2.267.765-3.828.765a9.2 9.2 0 0 1-3.604-.72 8.755 8.755 0 0 1-3.018-2.118c-.841-.96-1.517-2.132-2.027-3.513-.481-1.381-.721-2.973-.721-4.775 0-1.681.21-3.198.631-4.549.45-1.382 1.096-2.553 1.937-3.514a8.143 8.143 0 0 1 3.063-2.252c1.231-.54 2.612-.811 4.144-.811 1.051 0 2.042.165 2.973.496.961.3 1.757.736 2.387 1.306V94.814zm0 16.171a5.962 5.962 0 0 0-1.802-1.441c-.69-.361-1.456-.541-2.297-.541-.751 0-1.471.135-2.162.406-.661.24-1.261.645-1.802 1.216-.51.57-.931 1.306-1.261 2.207-.3.901-.45 1.982-.45 3.243s.135 2.357.405 3.288c.3.931.691 1.697 1.171 2.298a4.956 4.956 0 0 0 1.667 1.306c.66.27 1.351.405 2.072.405.991 0 1.862-.225 2.612-.675a6.017 6.017 0 0 0 1.847-1.847v-9.865zm28.299 4.82h7.883l-1.486-4.189a245.83 245.83 0 0 0-1.216-3.559 145.586 145.586 0 0 1-1.127-3.648h-.09c-.42 1.231-.825 2.432-1.216 3.603-.39 1.141-.811 2.343-1.261 3.604l-1.487 4.189zm1.352-17.297h5.495l10.766 28.378h-5.811l-2.522-6.982h-10.586l-2.522 6.982h-5.721l10.901-28.378zm29.151 28.828c-.871 0-1.712-.105-2.523-.315-.78-.21-1.441-.496-1.982-.856v11.081h-5.27v-31.891h4.099l.631 2.522a10.72 10.72 0 0 1 2.883-1.982c1.081-.54 2.312-.811 3.693-.811 2.823 0 5.045.946 6.667 2.838 1.652 1.862 2.477 4.475 2.477 7.838 0 1.922-.3 3.603-.9 5.045-.571 1.441-1.352 2.657-2.343 3.648a9.321 9.321 0 0 1-3.378 2.163c-1.291.48-2.643.72-4.054.72zm.18-18.153c-1.081 0-2.027.271-2.838.811-.811.511-1.426 1.021-1.847 1.532v10.63a5.224 5.224 0 0 0 1.757.946c.661.18 1.352.27 2.072.27.721 0 1.427-.135 2.117-.405a5.07 5.07 0 0 0 1.847-1.261c.571-.601 1.021-1.367 1.351-2.298.361-.961.541-2.132.541-3.513 0-1.982-.42-3.589-1.261-4.82-.811-1.261-2.057-1.892-3.739-1.892zm24.586 18.153c-.871 0-1.712-.105-2.523-.315-.781-.21-1.441-.496-1.982-.856v11.081h-5.27v-31.891h4.099l.631 2.522a10.698 10.698 0 0 1 2.882-1.982c1.082-.54 2.313-.811 3.694-.811 2.823 0 5.045.946 6.667 2.838 1.651 1.862 2.477 4.475 2.477 7.838 0 1.922-.3 3.603-.901 5.045-.57 1.441-1.351 2.657-2.342 3.648a9.321 9.321 0 0 1-3.378 2.163c-1.292.48-2.643.72-4.054.72zm.18-18.153c-1.081 0-2.027.271-2.838.811-.811.511-1.426 1.021-1.847 1.532v10.63a5.214 5.214 0 0 0 1.757.946c.661.18 1.351.27 2.072.27.721 0 1.426-.135 2.117-.405a5.078 5.078 0 0 0 1.847-1.261c.57-.601 1.021-1.367 1.351-2.298.361-.961.541-2.132.541-3.513 0-1.982-.421-3.589-1.262-4.82-.81-1.261-2.057-1.892-3.738-1.892z" fill="#000"/><path d="M155.72 54.67H63.94c-6.29 0-11.44 5.15-11.44 11.44v91.78c0 6.29 5.15 11.44 11.44 11.44h91.78c6.29 0 11.44-5.15 11.44-11.44V66.12c0-6.3-5.15-11.45-11.44-11.45z" fill="#75C69A"/><path d="M132.72 139.44c-.08 1.14-.55 2.16-1.03 3.16-.56 1.2-1.12 2.39-1.51 3.66-.13.42-.27.76-.84.58-1.76-.56-3.62-.46-5.42-.75-1.4-.22-2.59-.74-3.23-2.15-.29-.65-.3-1.01.48-1.29 3.19-1.15 6.11-2.79 8.79-4.85.05-.04.11-.08.18-.1.51-.19.71-1.16 1.36-.8.71.4 1.07 1.2 1.22 2.03.02.16 0 .34 0 .51zM76.31 118.6c-1.65.08-2.48-1.04-3.32-2.03-1.09-1.29-2.05-2.69-3.11-4.01-.3-.37-.31-.58.01-.94 1.28-1.41 2.31-3.01 3.43-4.54.93-1.27 2.21-1.73 3.76-1.51.46.07.63.23.52.74-.56 2.53-.51 5.11-.48 7.68.02 1.05.17 2.08.37 3.11.24 1.31.09 1.5-1.18 1.5zm10.6-34c-.06-.67.19-1.37.53-2.04.76-1.48 1.41-3 1.93-4.57.18-.54.38-.75 1.02-.56 1.99.57 4.1.36 6.12.86 1.25.31 2.1 1 2.49 2.26.15.5.08.75-.47.95-3.1 1.15-6.01 2.66-8.64 4.68-.11.08-.23.14-.34.22-.46.34-.89 1.12-1.45.82-.78-.42-1.2-1.26-1.19-2.22.01-.1 0-.2 0-.4zm-4.86 50.28c-1.1-.07-2.27-.82-3.51-1.35-1.03-.44-2.06-.89-3.13-1.21-.45-.13-.63-.34-.47-.81.58-1.75.46-3.6.75-5.4.22-1.35.71-2.51 2.06-3.17.73-.35 1.12-.34 1.43.53 1.14 3.18 2.82 6.07 4.88 8.74.02.03.04.06.05.09.19.51 1.16.7.8 1.35-.4.73-1.25 1-2.05 1.21-.16.05-.34.02-.81.02zm.15-45.6c.45-.02.85.02 1.24.17 1.62.6 1.73 1.02.68 2.34-2.14 2.7-3.78 5.69-4.98 8.92-.25.67-.53.78-1.16.53-1.17-.48-1.84-1.31-2.11-2.53-.45-2.08-.36-4.23-.96-6.28-.1-.35.12-.52.4-.59 1.88-.52 3.53-1.58 5.34-2.26.51-.2 1.03-.36 1.55-.3zm34.17 56.23c.06 1.57-.99 2.38-1.94 3.17-1.35 1.13-2.8 2.13-4.18 3.23-.34.27-.55.26-.86-.02-1.41-1.27-3.05-2.26-4.55-3.42-1.13-.87-1.78-2.05-1.52-3.55.09-.52.22-.84.99-.7 3.6.66 7.22.67 10.83.05 1.08-.19 1.24-.01 1.23 1.24zm27.69-26.91c-2-.01-2.1-.18-1.86-1.58.55-3.22.46-6.46.07-9.7-.06-.51-.51-1.16-.07-1.48.6-.45 1.43-.39 2.17-.16 1.02.33 1.68 1.15 2.32 1.93 1.07 1.31 2.05 2.7 3.11 4.01.31.38.28.6-.03.93-1.26 1.38-2.24 2.97-3.37 4.45-.73.97-1.7 1.56-2.34 1.6zm-11.3-33.83c.03.5-.15.93-.39 1.36-.7 1.25-1 1.28-2.13.39-2.74-2.14-5.72-3.88-9-5.05-.84-.3-.8-.65-.5-1.35.53-1.24 1.53-1.79 2.75-2 1.9-.32 3.84-.31 5.72-.81.29-.08.72-.18.86.29.65 2.21 1.99 4.15 2.56 6.39.05.25.08.52.13.78zm-44.52 52.02c.21.16.4.31.58.45 3 2.31 6.23 4.21 9.81 5.49.48.17.52.37.38.81-.48 1.54-1.67 2.38-3.66 2.55-1.69.14-3.37.32-5.02.69-.36.08-.7.19-.82-.26-.57-2.07-1.86-3.84-2.45-5.89-.34-1.19-.23-2.35.66-3.32.15-.19.33-.34.52-.52zm28.13-57.91c0 .97-.14 1.09-1.55.87-3.51-.54-7.01-.59-10.5.15-.62.13-.87-.14-.99-.69-.3-1.39.32-2.45 1.31-3.31 1.56-1.35 3.4-2.35 4.91-3.77.23-.21.41-.32.67-.05 1.44 1.46 3.29 2.38 4.84 3.69.81.66 1.35 1.53 1.31 3.11zm21.25 56.04c-.56-.02-.84 0-1.1-.06-.62-.13-1.13-.5-1.55-.93-.74-.77.28-1.07.55-1.42 2.19-2.81 3.91-5.86 5.13-9.19.21-.58.45-.63.97-.45 1.3.43 1.97 1.38 2.25 2.65.46 2.08.31 4.24.88 6.3.08.3-.14.45-.37.51-1.95.54-3.65 1.66-5.54 2.33-.49.18-.98.3-1.22.26zm7.13-42.53c-.58 1.97-.51 3.92-.79 5.81-.22 1.46-.88 2.61-2.39 3.12-.47.16-.71.13-.91-.41-1.3-3.63-3.22-6.92-5.71-9.88-.35-.42-.22-.61.1-.89.98-.85 2.13-1.11 3.33-.74 2.07.64 3.93 1.84 6.02 2.47.32.08.44.31.35.52z" fill="#fff"/><path d="M109.83 142.87c-17.02 0-30.86-13.85-30.86-30.86 0-17.01 13.85-30.86 30.86-30.86 17.01 0 30.86 13.85 30.86 30.86 0 17.01-13.84 30.86-30.86 30.86zm0-59.62c-15.86 0-28.76 12.9-28.76 28.76 0 15.86 12.9 28.76 28.76 28.76 15.86 0 28.76-12.9 28.76-28.76 0-15.86-12.9-28.76-28.76-28.76z" fill="#fff"/><path d="M116.88 125.49l-3.22-.03-6.32-.06-1.59-2.8 9.53.08 3.22.03 9.28.08-3.68-6.51 1.64-2.76 6.17 10.91c2-3.63 3.14-7.8 3.14-12.24s-1.14-8.61-3.14-12.24l-7.07 11.99v.01l-3.18 5.36.01.01-2.25 3.83-3.22-.03 4.4-7.47 3.68-6.24 3.47-5.88-7.04-.06-1.58-2.8 12.08.11c-4.32-6.93-11.89-11.62-20.58-11.95l5.91 10.46 3.94 6.97 1.88 3.33-1.63 2.77-3.65-6.45-3.93-6.98-.01.01-3.04-5.38-3.2 5.43-3.22-.02 5.99-10.16h-.02c-8.93 0-16.79 4.62-21.31 11.59l12.04.11v.01l5.6.04 6.32.06 1.58 2.8-7.65-.07v-.01l-6.41-.04-7.97-.07 3.67 6.49-1.63 2.77-6.22-10.99a25.258 25.258 0 0 0-3.42 12.72c0 4.47 1.16 8.67 3.19 12.32l7.34-12.46 1.63-2.77 3.79-6.43 3.22.02-5.43 9.21-1.63 2.77-4.49 7.62 7.02.06 1.59 2.8-12.63-.11c4.37 7.29 12.29 12.21 21.37 12.36l-6.92-12.23h-.01l-1.59-2.8h.01l-3.46-6.12 1.63-2.77 3.81 6.74 3.95 6.97 2.88 5.09 3.2-5.44 3.22.03-6.21 10.54c9.07-.03 17.01-4.81 21.48-11.98l-14.33-.15z" fill="#fff"/></g><defs><filter id="a" x=".53" y=".57" width="517.47" height="226.34" filterUnits="userSpaceOnUse" color-interpolation-filters="sRGB"><feFlood flood-opacity="0" result="BackgroundImageFix"/><feColorMatrix in="SourceAlpha" values="0 0 0 0 0 0 0 0 0 0 0 0 0 0 0 0 0 0 127 0" result="hardAlpha"/><feOffset dx="3" dy="2"/><feGaussianBlur stdDeviation="18.5"/><feColorMatrix values="0 0 0 0 0.443137 0 0 0 0 0.792157 0 0 0 0 0.607843 0 0 0 0.4 0"/><feBlend in2="BackgroundImageFix" result="effect1_dropShadow"/><feBlend in="SourceGraphic" in2="effect1_dropShadow" result="shape"/></filter></defs></svg>