<svg width="295" height="88" viewBox="0 0 295 88" fill="none" xmlns="http://www.w3.org/2000/svg"><path d="M293.038 77.604c0 4.658-3.75 8.433-8.377 8.433H10.339c-4.627 0-8.39-3.763-8.39-8.433V10.396c0-4.658 3.763-8.434 8.39-8.434h274.31c4.626 0 8.377 3.776 8.377 8.434l.012 67.208z" fill="#fff"/><path d="M284.661 88H10.339C4.639 88 .012 83.355 0 77.616v-67.22C.012 4.658 4.639 0 10.339 0h274.31c5.7.012 10.326 4.658 10.339 10.396v67.208C295 83.342 290.349 88 284.661 88z" fill="#A6A5A5"/><path d="M293.038 77.604c0 4.658-3.75 8.433-8.377 8.433H10.339c-4.627 0-8.39-3.763-8.39-8.433V10.396c0-4.658 3.763-8.434 8.39-8.434h274.31c4.626 0 8.377 3.776 8.377 8.434l.012 67.208z" fill="#020202"/><path opacity=".1" d="M284.661 0H137.723l57.554 88h89.384c5.7 0 10.327-4.658 10.339-10.396V10.396C294.988 4.658 290.361 0 284.661 0z" fill="#fff"/><path d="M67.98 44.789c-.063-6.931 5.637-10.31 5.909-10.47-3.233-4.746-8.242-5.391-9.993-5.441-4.208-.447-8.291 2.534-10.426 2.534-2.183 0-5.49-2.484-9.043-2.422-4.577.074-8.858 2.732-11.202 6.88-4.849 8.447-1.234 20.855 3.405 27.674 2.32 3.34 5.033 7.08 8.587 6.943 3.479-.137 4.774-2.223 8.969-2.223 4.158 0 5.38 2.223 8.994 2.148 3.726-.062 6.082-3.353 8.315-6.732 2.69-3.825 3.763-7.601 3.8-7.8-.098-.025-7.254-2.782-7.316-11.091zm-6.848-20.395c1.863-2.347 3.146-5.552 2.788-8.806-2.702.124-6.082 1.888-8.032 4.186-1.727 2.024-3.257 5.353-2.862 8.47 3.035.236 6.157-1.54 8.106-3.85zm57.172 43.125h-4.861l-2.665-8.41h-9.241l-2.53 8.41h-4.724l9.166-28.642h5.663l9.192 28.642zm-8.316-11.937l-2.406-7.477c-.259-.77-.728-2.559-1.431-5.39h-.086a190.814 190.814 0 0 1-1.357 5.39l-2.369 7.477h7.649zm31.831 1.367c0 3.515-.95 6.284-2.85 8.321-1.703 1.814-3.813 2.72-6.329 2.72-2.715 0-4.676-.968-5.861-2.93v10.83h-4.565V53.657c0-2.21-.061-4.471-.172-6.782h4.009l.259 3.28h.087c1.517-2.472 3.824-3.702 6.921-3.702 2.418 0 4.442.956 6.058 2.894 1.628 1.913 2.443 4.46 2.443 7.602zm-4.639.161c0-2.012-.444-3.664-1.357-4.968-.987-1.354-2.307-2.037-3.973-2.037-1.123 0-2.147.372-3.06 1.13-.913.758-1.517 1.739-1.789 2.956a5.93 5.93 0 0 0-.209 1.391v3.44c0 1.504.456 2.77 1.369 3.802.913 1.03 2.11 1.552 3.566 1.552 1.715 0 3.047-.67 4.009-2 .963-1.329 1.444-3.08 1.444-5.266zm28.24-.161c0 3.515-.95 6.284-2.85 8.321-1.702 1.814-3.812 2.72-6.329 2.72-2.714 0-4.676-.968-5.86-2.93v10.83h-4.565V53.657c0-2.21-.062-4.471-.173-6.782h4.01l.259 3.28h.086c1.518-2.472 3.825-3.702 6.922-3.702 2.418 0 4.441.956 6.057 2.894 1.629 1.913 2.443 4.46 2.443 7.602zm-4.651.161c0-2.012-.457-3.664-1.357-4.968-.987-1.354-2.307-2.037-3.961-2.037-1.122 0-2.146.372-3.059 1.13-.913.758-1.518 1.739-1.789 2.956-.136.572-.21 1.031-.21 1.391v3.44c0 1.504.457 2.77 1.37 3.802.913 1.03 2.109 1.552 3.565 1.552 1.715 0 3.06-.67 4.01-2 .95-1.329 1.431-3.08 1.431-5.266zm31.041 2.385c0 2.434-.851 4.422-2.529 5.95-1.851 1.664-4.442 2.508-7.748 2.508-3.06 0-5.515-.596-7.366-1.788l1.049-3.826c1.999 1.193 4.195 1.789 6.588 1.789 1.715 0 3.06-.398 4.01-1.168.95-.782 1.443-1.826 1.443-3.117 0-1.168-.394-2.137-1.184-2.932-.79-.795-2.097-1.528-3.923-2.21-4.985-1.876-7.477-4.609-7.477-8.21 0-2.348.876-4.273 2.64-5.776 1.752-1.503 4.084-2.248 6.983-2.248 2.591 0 4.75.46 6.465 1.366l-1.147 3.739c-1.616-.882-3.43-1.317-5.466-1.317-1.604 0-2.874.397-3.775 1.192-.765.708-1.147 1.565-1.147 2.596 0 1.13.444 2.075 1.307 2.807.753.683 2.135 1.416 4.133 2.211 2.456.994 4.257 2.149 5.404 3.478 1.16 1.316 1.74 2.968 1.74 4.956zm15.101-9.18h-5.021V60.34c0 2.547.888 3.826 2.664 3.826.815 0 1.493-.075 2.024-.211l.123 3.49c-.901.335-2.085.51-3.541.51-1.801 0-3.207-.56-4.219-1.665-1.012-1.106-1.518-2.956-1.518-5.565v-10.42h-2.998v-3.441h2.998v-3.776l4.479-1.366v5.142h5.021l-.012 3.453zm22.639 6.708c0 3.18-.901 5.776-2.702 7.813-1.888 2.099-4.392 3.142-7.513 3.142-3.011 0-5.416-1.006-7.205-3.018-1.789-2.012-2.678-4.546-2.678-7.602 0-3.204.926-5.825 2.764-7.862 1.851-2.037 4.33-3.055 7.452-3.055 3.01 0 5.428 1.006 7.254 3.018 1.752 1.962 2.628 4.484 2.628 7.564zm-4.738.112c0-1.888-.407-3.515-1.221-4.869-.95-1.64-2.319-2.46-4.096-2.46-1.826 0-3.232.82-4.182 2.46-.815 1.354-1.222 3.006-1.222 4.956 0 1.888.407 3.515 1.222 4.869.987 1.64 2.356 2.459 4.145 2.459 1.74 0 3.109-.832 4.096-2.497.839-1.39 1.258-3.018 1.258-4.918zm19.555-6.223a7.866 7.866 0 0 0-1.431-.124c-1.604 0-2.85.609-3.713 1.826-.753 1.08-1.135 2.434-1.135 4.074v10.83h-4.565V53.372c0-2.173-.037-4.334-.136-6.496h3.973l.172 3.95h.124c.481-1.354 1.246-2.46 2.282-3.279a5.455 5.455 0 0 1 3.294-1.105c.42 0 .802.024 1.135.087v4.384zm20.394 5.304c.012.695-.049 1.39-.173 2.086h-13.682c.049 2.037.716 3.602 1.986 4.683 1.148.956 2.641 1.44 4.479 1.44 2.023 0 3.874-.322 5.539-.968l.716 3.18c-1.937.857-4.232 1.279-6.884 1.279-3.183 0-5.676-.944-7.501-2.82-1.814-1.888-2.727-4.409-2.727-7.589 0-3.117.839-5.7 2.541-7.775 1.777-2.21 4.158-3.316 7.169-3.316 2.96 0 5.194 1.105 6.711 3.316 1.221 1.739 1.826 3.913 1.826 6.484zm-4.355-1.18c.037-1.367-.272-2.534-.888-3.528-.79-1.279-1.999-1.913-3.628-1.913-1.492 0-2.701.622-3.627 1.876-.765.994-1.209 2.186-1.345 3.565h9.488zM100.229 31.25c-1.27 0-2.369-.062-3.282-.174V17.227a25.145 25.145 0 0 1 3.862-.298c5.231 0 7.637 2.584 7.637 6.807 0 4.881-2.85 7.514-8.217 7.514zm.765-12.532c-.703 0-1.308.037-1.801.149v10.52c.271.037.79.062 1.517.062 3.43 0 5.379-1.962 5.379-5.639-.012-3.279-1.776-5.092-5.095-5.092zm14.953 12.632c-2.949 0-4.861-2.211-4.861-5.217 0-3.13 1.949-5.366 5.021-5.366 2.9 0 4.861 2.112 4.861 5.204 0 3.168-2.011 5.379-5.021 5.379zm.086-8.943c-1.616 0-2.652 1.527-2.652 3.651 0 2.087 1.061 3.615 2.64 3.615 1.579 0 2.64-1.627 2.64-3.652-.012-2.062-1.048-3.614-2.628-3.614zm21.739-1.441l-3.158 10.148h-2.061l-1.308-4.41a37.65 37.65 0 0 1-.814-3.279h-.037c-.16 1.106-.481 2.211-.814 3.28l-1.394 4.409h-2.073l-2.973-10.148h2.307l1.147 4.82c.272 1.154.494 2.235.679 3.253h.037c.16-.857.432-1.925.826-3.241l1.432-4.845h1.825l1.37 4.745a39.84 39.84 0 0 1 .814 3.341h.062c.148-1.043.37-2.148.678-3.34l1.222-4.746 2.233.013zm11.609 10.16h-2.245v-5.825c0-1.801-.679-2.695-2.036-2.695-1.332 0-2.245 1.155-2.245 2.484v6.036h-2.245v-7.254c0-.894-.025-1.863-.087-2.906h1.974l.099 1.565h.062c.604-1.08 1.826-1.776 3.195-1.776 2.122 0 3.504 1.627 3.504 4.285l.024 6.086zm6.181 0h-2.245V16.308h2.245v14.818zm8.168.224c-2.949 0-4.861-2.211-4.861-5.217 0-3.13 1.949-5.366 5.021-5.366 2.912 0 4.861 2.112 4.861 5.204 0 3.168-2.011 5.379-5.021 5.379zm.086-8.943c-1.616 0-2.652 1.527-2.652 3.651 0 2.087 1.061 3.615 2.628 3.615 1.579 0 2.64-1.627 2.64-3.652 0-2.062-1.037-3.614-2.616-3.614zm13.769 8.719l-.161-1.168h-.061c-.679.944-1.678 1.404-2.949 1.404-1.801 0-3.084-1.28-3.084-2.993 0-2.51 2.159-3.801 5.897-3.801v-.186c0-1.342-.703-2-2.097-2-1 0-1.863.248-2.641.758l-.456-1.479c.938-.583 2.097-.881 3.467-.881 2.64 0 3.96 1.403 3.96 4.198v3.738c0 1.019.049 1.814.148 2.422l-2.023-.012zm-.309-5.055c-2.492 0-3.738.608-3.738 2.05 0 1.067.642 1.59 1.542 1.59 1.135 0 2.196-.883 2.196-2.063v-1.577zm13.066 5.055l-.099-1.627h-.062c-.641 1.23-1.727 1.863-3.232 1.863-2.431 0-4.232-2.149-4.232-5.18 0-3.18 1.863-5.415 4.417-5.415 1.345 0 2.307.46 2.85 1.379h.049V16.32h2.246v12.072c0 .982.024 1.9.086 2.733h-2.023zm-.333-5.974c0-1.416-.938-2.634-2.357-2.634-1.665 0-2.677 1.479-2.677 3.565 0 2.05 1.049 3.453 2.628 3.453 1.406 0 2.406-1.23 2.406-2.695v-1.69zm16.47 6.198c-2.949 0-4.849-2.211-4.849-5.217 0-3.13 1.95-5.366 5.022-5.366 2.911 0 4.861 2.112 4.861 5.204-.013 3.168-2.024 5.379-5.034 5.379zm.086-8.943c-1.616 0-2.652 1.527-2.652 3.651 0 2.087 1.061 3.615 2.628 3.615 1.579 0 2.64-1.627 2.64-3.652 0-2.062-1.036-3.614-2.616-3.614zm16.989 8.719h-2.245v-5.825c0-1.801-.679-2.695-2.036-2.695-1.333 0-2.233 1.155-2.233 2.484v6.036h-2.246v-7.254c0-.894-.024-1.863-.086-2.906h1.974l.099 1.565h.061c.605-1.08 1.826-1.776 3.196-1.776 2.122 0 3.504 1.627 3.504 4.285v6.086h.012zm15.076-8.458h-2.467v4.93c0 1.255.432 1.876 1.308 1.876.394 0 .728-.037.999-.1l.062 1.715c-.432.174-1.012.248-1.74.248-1.764 0-2.825-.981-2.825-3.552v-5.117h-1.468v-1.69h1.468v-1.863l2.196-.67v2.521h2.467v1.702zm11.857 8.458h-2.233v-5.788c0-1.813-.679-2.733-2.036-2.733-1.16 0-2.246.795-2.246 2.398v6.123h-2.233V16.308h2.233v6.099h.05c.703-1.106 1.727-1.652 3.035-1.652 2.134 0 3.442 1.664 3.442 4.322v6.049h-.012zm12.164-4.534h-6.724c.037 1.926 1.308 3.006 3.183 3.006a7.5 7.5 0 0 0 2.715-.484l.345 1.565c-.95.422-2.073.62-3.38.62-3.159 0-5.022-1.999-5.022-5.116 0-3.118 1.913-5.453 4.763-5.453 2.578 0 4.194 1.925 4.194 4.82.013.36-.012.707-.074 1.043zm-2.06-1.614c0-1.565-.79-2.67-2.221-2.67-1.283 0-2.307 1.13-2.455 2.67h4.676z" fill="#fff"/></svg>