<svg width="316" height="128" viewBox="0 0 316 128" fill="none" xmlns="http://www.w3.org/2000/svg"><path d="M310.161 59.295c-1.418-1.617-3.117-2.43-5.106-2.43a7.23 7.23 0 0 0-2.527.454 5.819 5.819 0 0 0-2.177 1.471c-.641.676-1.145 1.54-1.52 2.584-.367 1.044-.555 2.327-.555 3.85 0 1.523.171 2.823.504 3.901.367 1.078.845 1.976 1.417 2.686.572.71 1.229 1.232 1.972 1.574a6.391 6.391 0 0 0 2.374.454c1.212 0 2.271-.274 3.184-.813.948-.539 1.751-1.3 2.425-2.275V59.294h.009zm0-18.025h5.208v36.008h-4.09l-.606-2.635h-.205c-.879 1.01-1.853 1.788-2.928 2.327-1.076.539-2.476.813-4.193.813-1.349 0-2.646-.257-3.893-.762-1.212-.539-2.305-1.334-3.287-2.378-.948-1.044-1.699-2.344-2.271-3.901-.572-1.557-.862-3.345-.862-5.364 0-1.89.239-3.593.708-5.116.504-1.523 1.213-2.823 2.126-3.901a9.36 9.36 0 0 1 3.441-2.481c1.349-.608 2.877-.916 4.602-.916 1.178 0 2.322.189 3.441.556 1.11.368 2.057.899 2.834 1.575V41.27h-.025zm-27.202 25.169l-3.185.051c-2.391.069-4.081.488-5.054 1.266-.974.779-1.469 1.686-1.469 2.738 0 .676.102 1.232.307 1.668.239.436.538.796.914 1.06a3.91 3.91 0 0 0 1.264.608 7.564 7.564 0 0 0 1.519.154c1.042 0 2.075-.256 3.083-.761a7.459 7.459 0 0 0 2.629-2.276V66.44h-.008zm-13.243-10.942c1.554-.847 3.031-1.472 4.449-1.874 1.451-.436 3.048-.658 4.798-.658 1.349 0 2.578.153 3.688.453 1.144.308 2.126.796 2.929 1.471.811.676 1.434 1.583 1.87 2.738.469 1.112.708 2.48.708 4.098v15.544h-4.192l-.555-2.583h-.153c-.948 1.078-2.041 1.873-3.288 2.378-1.246.47-2.629.71-4.141.71-2.39 0-4.328-.642-5.814-1.925-1.451-1.283-2.177-2.985-2.177-5.116 0-1.317.273-2.446.811-3.396a6.86 6.86 0 0 1 2.271-2.43c.973-.641 2.143-1.112 3.484-1.42 1.349-.333 2.834-.505 4.448-.505h4.047V61.17c0-1.523-.401-2.567-1.212-3.14-.812-.607-1.922-.915-3.339-.915-.879 0-1.87.154-2.98.453-1.075.274-2.322.796-3.739 1.574l-1.913-3.644zm-22.779 21.781h-5.208V41.27h5.208v14.834a17.12 17.12 0 0 1 3.535-2.224c1.314-.608 2.766-.916 4.345-.916 1.349 0 2.528.206 3.535.608 1.008.402 1.836.958 2.476 1.668.675.71 1.161 1.557 1.469 2.532.333.976.503 2.045.503 3.192v16.305h-5.208V62.127c0-1.788-.367-3.071-1.11-3.85-.742-.778-1.818-1.163-3.236-1.163-1.041 0-2.125.273-3.235.812-1.076.505-2.109 1.215-3.083 2.13v17.222h.009zm-16.786-10.84l-3.184.052c-2.391.069-4.082.488-5.055 1.266-.973.779-1.469 1.686-1.469 2.738 0 .676.103 1.232.308 1.668.239.436.538.796.913 1.06a3.92 3.92 0 0 0 1.264.608 7.582 7.582 0 0 0 1.52.154c1.041 0 2.075-.256 3.082-.761a7.462 7.462 0 0 0 2.63-2.276V66.44h-.009zm-13.242-10.941c1.554-.847 3.031-1.472 4.448-1.874 1.452-.436 3.048-.658 4.798-.658 1.349 0 2.579.153 3.689.453 1.144.308 2.126.796 2.928 1.471.811.676 1.435 1.583 1.87 2.738.47 1.112.709 2.48.709 4.098v15.544h-4.192l-.555-2.583h-.154c-.948 1.078-2.041 1.873-3.287 2.378-1.247.47-2.63.71-4.141.71-2.391 0-4.329-.642-5.814-1.925-1.452-1.283-2.178-2.985-2.178-5.116 0-1.317.274-2.446.812-3.396a6.841 6.841 0 0 1 2.271-2.43c.973-.641 2.143-1.112 3.483-1.42 1.349-.333 2.835-.505 4.448-.505h4.047V61.17c0-1.523-.401-2.567-1.212-3.14-.811-.607-1.921-.915-3.338-.915-.88 0-1.87.154-2.98.453-1.076.274-2.322.796-3.74 1.574l-1.912-3.644zm-22.344 21.781h-5.208V53.375h4.089l.709 3.191c1.178-1.146 2.408-2.027 3.688-2.635 1.315-.641 2.801-.958 4.449-.958 2.527 0 4.482.693 5.865 2.079 1.383 1.386 2.075 3.362 2.075 5.929v16.306h-5.208V61.63c0-1.386-.35-2.481-1.059-3.294-.708-.813-1.767-1.215-3.184-1.215-1.076 0-2.161.274-3.236.813-1.042.505-2.041 1.249-2.98 2.224v17.119zm-26.161-31.91h5.157l12.38 31.901h-5.66l-3.185-8.358h-12.482l-3.134 8.358h-5.609l12.533-31.901zM165.98 64.77h9.656l-1.87-5.167a130.178 130.178 0 0 1-1.519-3.952 190.44 190.44 0 0 1-1.315-4.252h-.103a668.714 668.714 0 0 1-1.417 4.15 134.809 134.809 0 0 1-1.52 4.097l-1.912 5.124z" fill="#010101"/><path d="M100.698 106.938c-.12 1.805-.88 3.413-1.622 5.013-.888 1.899-1.776 3.79-2.39 5.792-.206.667-.428 1.198-1.333.915-2.783-.889-5.72-.727-8.572-1.18-2.211-.351-4.098-1.172-5.097-3.397-.461-1.026-.47-1.599.76-2.036 5.037-1.813 9.656-4.423 13.9-7.682a.937.937 0 0 1 .281-.163c.811-.299 1.119-1.839 2.143-1.266 1.127.633 1.699 1.899 1.93 3.217.043.248 0 .522 0 .787zM11.527 73.95c-2.612.129-3.927-1.642-5.25-3.225-1.725-2.045-3.245-4.27-4.919-6.356-.47-.59-.495-.924.009-1.48 2.024-2.233 3.646-4.766 5.422-7.187 1.468-2.002 3.492-2.746 5.942-2.387.734.112.99.368.811 1.181-.888 4.012-.81 8.093-.751 12.165.025 1.668.264 3.302.58 4.928.41 2.053.171 2.344-1.844 2.361zm16.769-53.872c-.094-1.069.299-2.172.845-3.233a49.456 49.456 0 0 0 3.048-7.246c.282-.856.598-1.181 1.614-.89 3.15.898 6.489.573 9.673 1.369 1.973.496 3.33 1.59 3.928 3.576.239.787.128 1.18-.735 1.505-4.9 1.823-9.502 4.21-13.652 7.418-.17.128-.367.222-.538.35-.734.548-1.408 1.78-2.296 1.31-1.238-.66-1.904-1.994-1.879-3.517-.008-.162-.008-.325-.008-.642zm-7.701 79.649c-1.742-.103-3.586-1.3-5.541-2.14-1.631-.7-3.254-1.402-4.953-1.916-.708-.213-.99-.539-.75-1.274.921-2.78.725-5.706 1.186-8.547.35-2.138 1.118-3.978 3.261-5.013 1.162-.556 1.768-.539 2.254.838 1.81 5.03 4.457 9.616 7.719 13.851a.55.55 0 0 1 .077.137c.299.813 1.827 1.112 1.272 2.139-.632 1.155-1.981 1.582-3.245 1.925-.239.05-.529 0-1.28 0zm.247-72.223c.717-.034 1.34.043 1.964.265 2.57.941 2.74 1.609 1.076 3.713-3.381 4.286-5.977 9.017-7.864 14.125-.393 1.06-.837 1.24-1.827.83-1.853-.753-2.911-2.08-3.338-4.013-.717-3.285-.572-6.699-1.529-9.95-.162-.555.197-.82.632-.94 2.972-.822 5.576-2.507 8.436-3.576.81-.3 1.63-.557 2.45-.454zm54.02 89.058c.094 2.49-1.562 3.765-3.065 5.022-2.135 1.788-4.431 3.379-6.617 5.108-.547.427-.87.41-1.358-.035-2.237-2.019-4.815-3.584-7.189-5.415-1.784-1.386-2.817-3.242-2.407-5.612.145-.83.358-1.335 1.562-1.112 5.686 1.052 11.415 1.061 17.127.077 1.7-.3 1.956-.017 1.947 1.967zm43.766-42.612c-3.168-.009-3.313-.283-2.937-2.498.871-5.108.734-10.232.111-15.357-.094-.804-.803-1.83-.111-2.352.948-.71 2.262-.625 3.424-.248 1.622.521 2.655 1.822 3.662 3.062 1.691 2.07 3.236 4.27 4.91 6.357.486.607.435.94-.051 1.48-1.99 2.19-3.544 4.705-5.328 7.049-1.144 1.489-2.673 2.438-3.68 2.507zm-17.862-53.589c.043.796-.247 1.48-.615 2.147-1.11 1.977-1.57 2.028-3.364.625-4.328-3.396-9.041-6.143-14.232-8.008-1.332-.479-1.264-1.035-.794-2.138.845-1.96 2.416-2.84 4.346-3.166 2.996-.504 6.079-.487 9.041-1.292.461-.128 1.144-.29 1.358.454 1.024 3.508 3.142 6.57 4.038 10.12.103.42.145.839.222 1.258zm-70.378 82.385c.333.257.623.488.913.71 4.739 3.662 9.845 6.673 15.505 8.701.76.274.82.581.598 1.274-.769 2.447-2.638 3.773-5.789 4.038-2.664.223-5.319.505-7.932 1.087-.572.128-1.101.308-1.297-.419-.906-3.277-2.946-6.083-3.877-9.334-.546-1.891-.367-3.721 1.033-5.261.256-.265.547-.505.846-.796zm44.474-91.727c0 1.531-.213 1.72-2.442 1.377-5.541-.855-11.082-.924-16.59.231-.99.205-1.374-.222-1.562-1.086-.47-2.208.504-3.876 2.075-5.236 2.468-2.139 5.37-3.721 7.753-5.971.358-.334.64-.505 1.067-.077 2.28 2.31 5.2 3.772 7.65 5.843 1.246 1.043 2.1 2.43 2.049 4.919zm33.589 88.776c-.88-.043-1.324 0-1.734-.094-.973-.214-1.784-.787-2.45-1.472-1.178-1.215.435-1.694.871-2.25 3.458-4.448 6.181-9.282 8.102-14.56.333-.916.718-.993 1.529-.72 2.057.685 3.108 2.182 3.56 4.193.734 3.293.495 6.716 1.392 9.984.128.479-.222.71-.589.812-3.083.847-5.764 2.627-8.752 3.688-.768.282-1.554.479-1.929.419zm11.27-67.371c-.914 3.122-.803 6.202-1.255 9.205-.342 2.31-1.384 4.132-3.774 4.936-.752.248-1.127.197-1.435-.65-2.057-5.757-5.097-10.968-9.024-15.647-.564-.667-.35-.975.162-1.412 1.545-1.343 3.372-1.762 5.268-1.18 3.278 1.018 6.216 2.917 9.52 3.91.495.145.674.504.538.838z" fill="#75C69A"/><path d="M64.514 112.388c-26.903 0-48.786-21.927-48.786-48.884S37.61 14.62 64.514 14.62c26.903 0 48.786 21.927 48.786 48.884s-21.883 48.884-48.786 48.884zm0-94.44c-25.068 0-45.465 20.438-45.465 45.556s20.397 45.556 45.465 45.556c25.068 0 45.465-20.438 45.465-45.556S89.582 17.948 64.514 17.948z" fill="#75C69A"/><path d="M75.665 84.858l-5.089-.043v-.009l-9.98-.085-2.502-4.432 15.07.137 5.088.043 14.668.128-5.814-10.3 2.595-4.372 9.75 17.281a40.074 40.074 0 0 0 4.97-19.394 40.041 40.041 0 0 0-4.97-19.386L88.285 63.418l.008.009-5.028 8.487.025.017-3.56 6.057-5.089-.043L81.6 66.122l5.823-9.881-.009-.009 5.481-9.325-11.125-.102-2.501-4.432 19.1.171c-6.831-10.976-18.793-18.402-32.53-18.924l9.349 16.563 6.232 11.044 2.972 5.27-2.587 4.39L76.04 50.67l-6.25-11.06-.016.008-4.807-8.52-5.055 8.614-5.088-.034 9.46-16.092h-.026c-14.122 0-26.536 7.315-33.69 18.36l19.039.17v.017l8.845.06v.009l9.998.077 2.493 4.431-12.09-.11v-.018l-10.134-.068-12.594-.112 5.806 10.284-2.578 4.388-9.836-17.41a40.084 40.084 0 0 0-5.405 20.148 40.16 40.16 0 0 0 5.038 19.514L40.753 63.59v-.009l2.578-4.389v.009l5.994-10.19 5.089.035-8.572 14.586-2.579 4.39-7.103 12.07 11.099.103 2.502 4.431-19.97-.18c6.906 11.55 19.423 19.335 33.784 19.575L52.646 84.652h-.017l-2.501-4.431h.017l-5.473-9.702 2.578-4.389 6.028 10.677h-.008l6.24 11.036 4.543 8.06 5.063-8.616 5.08.043-9.818 16.699c14.335-.042 26.894-7.614 33.955-18.975l-22.668-.197z" fill="#75C69A"/></svg>