<svg width="518" height="127" viewBox="0 0 518 127" fill="none" xmlns="http://www.w3.org/2000/svg"><g clip-path="url(#a)"><path d="M309.161 59.295c-1.418-1.617-3.117-2.43-5.106-2.43a7.23 7.23 0 0 0-2.527.454 5.819 5.819 0 0 0-2.177 1.471c-.641.676-1.145 1.54-1.52 2.584-.367 1.044-.555 2.327-.555 3.85 0 1.523.171 2.823.504 3.901.367 1.078.845 1.976 1.417 2.686.572.71 1.229 1.232 1.972 1.574a6.391 6.391 0 0 0 2.374.454c1.212 0 2.271-.274 3.184-.813.948-.539 1.751-1.3 2.425-2.275V59.294h.009zm0-18.025h5.208v36.008h-4.09l-.606-2.635h-.205c-.879 1.01-1.853 1.788-2.928 2.327-1.076.539-2.476.813-4.193.813-1.349 0-2.646-.257-3.893-.762-1.212-.539-2.305-1.334-3.287-2.378-.948-1.044-1.699-2.344-2.271-3.901-.572-1.557-.862-3.345-.862-5.364 0-1.89.239-3.593.708-5.116.504-1.523 1.213-2.823 2.126-3.901a9.36 9.36 0 0 1 3.441-2.481c1.349-.608 2.877-.916 4.602-.916 1.178 0 2.322.189 3.441.556 1.11.368 2.057.899 2.834 1.575V41.27h-.025zm-27.202 25.169l-3.185.051c-2.391.069-4.081.488-5.054 1.266-.974.779-1.469 1.686-1.469 2.738 0 .676.102 1.232.307 1.668.239.436.538.796.914 1.06a3.91 3.91 0 0 0 1.264.608 7.564 7.564 0 0 0 1.519.154c1.042 0 2.075-.256 3.083-.761a7.459 7.459 0 0 0 2.629-2.276V66.44h-.008zm-13.243-10.942c1.554-.847 3.031-1.472 4.449-1.874 1.451-.436 3.048-.658 4.798-.658 1.349 0 2.578.153 3.688.453 1.144.308 2.126.796 2.929 1.471.811.676 1.434 1.583 1.87 2.738.469 1.112.708 2.481.708 4.098v15.544h-4.192l-.555-2.583h-.153c-.948 1.078-2.041 1.873-3.288 2.378-1.246.47-2.629.71-4.141.71-2.39 0-4.328-.642-5.814-1.925-1.451-1.283-2.177-2.985-2.177-5.116 0-1.317.273-2.446.811-3.396a6.86 6.86 0 0 1 2.271-2.43c.973-.641 2.143-1.112 3.484-1.42 1.349-.333 2.834-.505 4.448-.505h4.047V61.17c0-1.523-.401-2.567-1.212-3.14-.812-.607-1.922-.915-3.339-.915-.879 0-1.87.154-2.98.453-1.075.274-2.322.796-3.739 1.574l-1.913-3.644zm-22.779 21.781h-5.208V41.27h5.208v14.834a17.12 17.12 0 0 1 3.535-2.224c1.314-.608 2.766-.916 4.345-.916 1.349 0 2.528.206 3.535.608 1.008.402 1.836.958 2.476 1.668.675.71 1.161 1.557 1.469 2.532.333.976.503 2.045.503 3.192v16.305h-5.208V62.127c0-1.788-.367-3.071-1.11-3.85-.742-.778-1.818-1.163-3.236-1.163-1.041 0-2.125.273-3.235.812-1.076.505-2.109 1.215-3.083 2.13v17.222h.009zm-16.786-10.84l-3.184.052c-2.391.069-4.082.488-5.055 1.266-.973.779-1.469 1.686-1.469 2.738 0 .676.103 1.232.308 1.668.239.436.538.796.913 1.06a3.92 3.92 0 0 0 1.264.608 7.582 7.582 0 0 0 1.52.154c1.041 0 2.075-.256 3.082-.761a7.462 7.462 0 0 0 2.63-2.276V66.44h-.009zm-13.242-10.941c1.554-.847 3.031-1.472 4.448-1.874 1.452-.436 3.048-.658 4.798-.658 1.349 0 2.579.153 3.689.453 1.144.308 2.126.796 2.928 1.471.811.676 1.435 1.583 1.87 2.738.47 1.112.709 2.481.709 4.098v15.544h-4.192l-.555-2.583h-.154c-.948 1.078-2.041 1.873-3.287 2.378-1.247.47-2.63.71-4.141.71-2.391 0-4.329-.642-5.814-1.925-1.452-1.283-2.178-2.985-2.178-5.116 0-1.317.274-2.446.812-3.396a6.841 6.841 0 0 1 2.271-2.43c.973-.641 2.143-1.112 3.483-1.42 1.349-.333 2.835-.505 4.448-.505h4.047V61.17c0-1.523-.401-2.567-1.212-3.14-.811-.607-1.921-.915-3.338-.915-.88 0-1.87.154-2.98.453-1.076.274-2.322.796-3.74 1.574l-1.912-3.644zm-22.344 21.781h-5.208V53.375h4.089l.709 3.191c1.178-1.146 2.408-2.027 3.688-2.635 1.315-.641 2.801-.958 4.449-.958 2.527 0 4.482.693 5.865 2.079 1.383 1.386 2.075 3.362 2.075 5.929v16.306h-5.208V61.63c0-1.386-.35-2.481-1.059-3.294-.708-.813-1.767-1.215-3.184-1.215-1.076 0-2.161.274-3.236.813-1.042.505-2.041 1.249-2.98 2.224v17.119zm-26.161-31.91h5.157l12.38 31.901h-5.66l-3.185-8.358h-12.482l-3.134 8.358h-5.609l12.533-31.901zM164.98 64.77h9.656l-1.87-5.167a130.178 130.178 0 0 1-1.519-3.952 190.44 190.44 0 0 1-1.315-4.252h-.103a668.714 668.714 0 0 1-1.417 4.15 134.809 134.809 0 0 1-1.52 4.097l-1.912 5.124z" fill="#010101"/><path d="M510.154 72.821h.068l4.414-12.559h3.373l-7.753 19.788a11.992 11.992 0 0 1-.879 1.788 5.138 5.138 0 0 1-1.11 1.352 4.39 4.39 0 0 1-1.52.88c-.564.206-1.238.309-2.024.309a8.8 8.8 0 0 1-1.041-.069 5.881 5.881 0 0 1-1.042-.17l.308-2.807c.537.18 1.067.274 1.579.274.828 0 1.452-.24 1.853-.71.401-.453.777-1.104 1.11-1.96l1.007-2.668-6.839-16.007h3.535l4.961 12.559zm-11.527-8.504c-.333-.522-.845-.95-1.519-1.283a4.522 4.522 0 0 0-2.161-.539c-.828 0-1.571.154-2.219.47a4.923 4.923 0 0 0-1.614 1.284 5.635 5.635 0 0 0-1.042 1.822 7.217 7.217 0 0 0-.333 2.199c0 .761.111 1.497.333 2.198a6.076 6.076 0 0 0 1.042 1.857 5.1 5.1 0 0 0 1.648 1.249c.649.316 1.391.47 2.22.47.811 0 1.536-.154 2.194-.47a4.504 4.504 0 0 0 1.648-1.283l2.126 1.925c-.675.787-1.52 1.403-2.528 1.856-1.007.428-2.16.642-3.44.642-1.238 0-2.383-.206-3.441-.608a8.326 8.326 0 0 1-2.698-1.685 8.406 8.406 0 0 1-1.819-2.67c-.427-1.035-.64-2.198-.64-3.473 0-1.257.213-2.412.64-3.447a7.919 7.919 0 0 1 1.785-2.67 7.9 7.9 0 0 1 2.698-1.72 9.511 9.511 0 0 1 3.406-.607 8.7 8.7 0 0 1 3.339.676c1.127.454 2.006 1.104 2.663 1.96l-2.288 1.847zm-20.286 4.32c-.785 0-1.605.035-2.459.103-.828.069-1.597.206-2.288.402-.675.206-1.238.505-1.682.916-.453.402-.675.95-.675 1.617 0 .47.094.864.274 1.18a2.6 2.6 0 0 0 .777.779c.315.205.666.35 1.041.436a6.65 6.65 0 0 0 1.178.103c1.486 0 2.622-.437 3.407-1.318.811-.898 1.213-2.027 1.213-3.379v-.847h-.786v.009zm.777-2.737c0-1.19-.359-2.07-1.076-2.635-.717-.582-1.673-.881-2.86-.881-.897 0-1.75.18-2.561.539a6.215 6.215 0 0 0-1.99 1.317l-1.682-2.027c.786-.745 1.742-1.326 2.86-1.754a10.428 10.428 0 0 1 3.672-.642c1.144 0 2.134.171 2.962.505.854.317 1.554.753 2.092 1.317a5.524 5.524 0 0 1 1.213 1.994c.273.761.401 1.583.401 2.464v6.99c0 .538.009 1.111.034 1.719.043.582.111 1.07.205 1.454h-2.86a10.031 10.031 0 0 1-.273-2.293h-.103a6.048 6.048 0 0 1-2.22 1.994c-.879.47-1.921.71-3.133.71a7.999 7.999 0 0 1-1.99-.274 5.37 5.37 0 0 1-1.852-.813 4.864 4.864 0 0 1-1.418-1.523c-.358-.633-.537-1.403-.537-2.327 0-1.214.324-2.172.973-2.865.649-.719 1.503-1.258 2.561-1.617 1.059-.385 2.246-.633 3.569-.745a47.966 47.966 0 0 1 4.013-.17V65.9zm-36.722-3.003c.401-.855 1.042-1.574 1.921-2.164.897-.608 1.955-.916 3.168-.916 1.076 0 2.04.248 2.894.745.88.496 1.563 1.317 2.058 2.464.538-1.036 1.289-1.823 2.254-2.362a6.164 6.164 0 0 1 3.167-.847c1.033 0 1.921.18 2.664.54a5.106 5.106 0 0 1 1.853 1.385 5.41 5.41 0 0 1 1.076 2.062c.247.787.367 1.634.367 2.532v9.924h-3.168v-8.872c0-.65-.059-1.274-.17-1.856a4.89 4.89 0 0 0-.573-1.557 3.016 3.016 0 0 0-1.075-1.078c-.453-.274-1.025-.402-1.716-.402-.718 0-1.341.154-1.853.47a3.77 3.77 0 0 0-1.281 1.181 5.358 5.358 0 0 0-.709 1.617 8.452 8.452 0 0 0-.204 1.856v8.641h-3.168v-9.513c0-.633-.06-1.206-.171-1.72a3.37 3.37 0 0 0-.572-1.317 2.672 2.672 0 0 0-1.041-.881c-.427-.223-.957-.334-1.58-.334-1.17 0-2.143.488-2.929 1.454-.759.95-1.144 2.216-1.144 3.816v8.512h-3.167V63.71c0-.428-.009-.975-.034-1.651a40.446 40.446 0 0 0-.103-1.788h2.997c.043.402.077.864.102 1.386.026.496.035.915.035 1.249h.102v-.009zm-15.309.813c0-.428-.008-.975-.034-1.651a39.095 39.095 0 0 0-.102-1.788h2.997c.042.402.077.88.102 1.42.026.522.034.95.034 1.283h.103a5.402 5.402 0 0 1 1.955-2.258 5.195 5.195 0 0 1 2.928-.882c.496 0 .914.043 1.247.137l-.137 2.935a6.021 6.021 0 0 0-1.451-.171c-.76 0-1.426.145-1.989.436a4.13 4.13 0 0 0-1.418 1.112 4.994 4.994 0 0 0-.811 1.651 6.776 6.776 0 0 0-.273 1.925v8.41h-3.168v-12.56h.017zm-9.092 4.928c-.786 0-1.606.034-2.459.102a12.01 12.01 0 0 0-2.289.402c-.674.206-1.238.505-1.682.916-.452.402-.674.95-.674 1.617 0 .47.094.864.273 1.18a2.6 2.6 0 0 0 .777.779c.316.205.666.35 1.042.436a6.65 6.65 0 0 0 1.178.103c1.486 0 2.621-.437 3.407-1.318.811-.898 1.212-2.027 1.212-3.379v-.847h-.785v.009zm.776-2.738c0-1.19-.358-2.07-1.075-2.635-.718-.582-1.674-.881-2.861-.881-.896 0-1.75.18-2.561.539a6.221 6.221 0 0 0-1.989 1.317l-1.682-2.027c.785-.745 1.741-1.326 2.86-1.754a10.423 10.423 0 0 1 3.671-.642c1.144 0 2.135.171 2.963.505.854.317 1.554.753 2.092 1.317a5.4 5.4 0 0 1 1.212 1.994c.273.761.401 1.583.401 2.464v6.99c0 .538.009 1.111.035 1.719a9.04 9.04 0 0 0 .205 1.454h-2.861a10.031 10.031 0 0 1-.273-2.293h-.102a6.064 6.064 0 0 1-2.22 1.994c-.88.47-1.921.71-3.134.71a7.985 7.985 0 0 1-1.989-.274 5.374 5.374 0 0 1-1.853-.813 4.86 4.86 0 0 1-1.417-1.523c-.359-.633-.538-1.403-.538-2.327 0-1.214.324-2.172.973-2.865.649-.719 1.503-1.258 2.562-1.617 1.058-.385 2.245-.633 3.569-.745a47.924 47.924 0 0 1 4.012-.17V65.9zm-26.314-3.208c.385-.787 1.033-1.463 1.956-2.028.922-.564 1.955-.847 3.099-.847 1.033 0 1.921.18 2.664.54a5.102 5.102 0 0 1 1.852 1.385 5.397 5.397 0 0 1 1.076 2.062c.248.787.367 1.634.367 2.532v9.924h-3.167v-8.837c0-.65-.06-1.275-.171-1.857a4.479 4.479 0 0 0-.538-1.557 2.982 2.982 0 0 0-1.11-1.078c-.452-.273-1.041-.402-1.784-.402-1.255 0-2.288.488-3.1 1.455-.811.95-1.212 2.215-1.212 3.815v8.478h-3.168V50.74h3.168v11.952h.068zm-10.979 5.544a7.12 7.12 0 0 0-.333-2.165 5.506 5.506 0 0 0-1.008-1.856 4.765 4.765 0 0 0-1.682-1.284c-.649-.316-1.417-.47-2.288-.47-.811 0-1.554.154-2.22.47a5.281 5.281 0 0 0-1.682 1.284 6.061 6.061 0 0 0-1.11 1.856 6.52 6.52 0 0 0-.367 2.199c0 .761.119 1.497.367 2.198a6.22 6.22 0 0 0 1.11 1.857c.47.522 1.033.932 1.682 1.249.675.316 1.417.47 2.22.47.879 0 1.639-.154 2.288-.47a5.06 5.06 0 0 0 1.682-1.318 5.505 5.505 0 0 0 1.008-1.856 7.159 7.159 0 0 0 .333-2.165zM370.967 84.37H367.8V60.262h3.099v2.498h.102c.521-.855 1.273-1.557 2.254-2.096 1.008-.564 2.178-.847 3.501-.847 1.187 0 2.271.214 3.236.642a7.344 7.344 0 0 1 2.527 1.788 7.785 7.785 0 0 1 1.648 2.703c.384 1.01.572 2.105.572 3.277a9.441 9.441 0 0 1-.572 3.31 8.327 8.327 0 0 1-1.614 2.704 7.79 7.79 0 0 1-2.527 1.822c-.99.428-2.1.642-3.338.642a7.27 7.27 0 0 1-3.236-.744c-1.008-.496-1.81-1.19-2.391-2.096h-.102V84.37h.008zm-7.394-14.988h-7.82v-2.704h7.82v2.704zm-10.988-1.25v.54c0 .18-.009.36-.034.539H339.88a5.28 5.28 0 0 0 .436 1.925 5.69 5.69 0 0 0 1.144 1.557 5.41 5.41 0 0 0 1.614 1.01 5.365 5.365 0 0 0 1.989.367c1.076 0 2.006-.24 2.8-.71.786-.47 1.401-1.044 1.853-1.72l2.22 1.788c-.854 1.13-1.861 1.96-3.031 2.499-1.144.521-2.425.778-3.842.778-1.212 0-2.339-.205-3.373-.607a7.902 7.902 0 0 1-2.663-1.686c-.743-.744-1.324-1.634-1.751-2.669-.427-1.035-.64-2.181-.64-3.448 0-1.24.205-2.378.606-3.413.427-1.06 1.008-1.96 1.75-2.704a7.633 7.633 0 0 1 2.63-1.72c1.008-.427 2.101-.64 3.27-.64 1.17 0 2.22.188 3.168.573.965.385 1.776.932 2.425 1.65.674.72 1.186 1.6 1.554 2.636.358 1.026.546 2.173.546 3.456zm-3.202-1.282a5.726 5.726 0 0 0-.333-1.754 3.752 3.752 0 0 0-.845-1.455c-.359-.402-.82-.718-1.383-.95-.538-.247-1.178-.367-1.921-.367-.675 0-1.315.12-1.921.368a4.896 4.896 0 0 0-1.554.95c-.427.401-.786.89-1.076 1.454a4.544 4.544 0 0 0-.47 1.754h9.503zM99.698 106.938c-.12 1.805-.88 3.413-1.622 5.013-.888 1.899-1.776 3.79-2.39 5.792-.206.667-.428 1.198-1.333.915-2.783-.889-5.72-.727-8.572-1.18-2.211-.351-4.098-1.172-5.097-3.397-.461-1.026-.47-1.599.76-2.036 5.037-1.813 9.656-4.423 13.9-7.682a.937.937 0 0 1 .281-.163c.811-.299 1.119-1.839 2.143-1.266 1.127.633 1.7 1.899 1.93 3.217.043.248 0 .522 0 .787zM10.527 73.95c-2.612.129-3.927-1.642-5.25-3.225-1.725-2.045-3.245-4.27-4.919-6.356-.47-.59-.495-.924.009-1.48 2.023-2.233 3.646-4.766 5.422-7.187 1.468-2.002 3.492-2.746 5.942-2.387.734.112.99.368.811 1.181-.888 4.012-.811 8.093-.751 12.165.025 1.668.264 3.302.58 4.928.41 2.053.171 2.344-1.844 2.361zm16.769-53.872c-.094-1.069.299-2.172.845-3.233a49.456 49.456 0 0 0 3.048-7.246c.282-.856.598-1.181 1.614-.89 3.15.898 6.489.573 9.673 1.369 1.973.496 3.33 1.59 3.928 3.576.239.787.128 1.18-.735 1.505-4.9 1.823-9.502 4.21-13.652 7.418-.17.128-.367.222-.538.35-.734.548-1.408 1.78-2.296 1.31-1.238-.66-1.904-1.994-1.879-3.517-.008-.162-.008-.325-.008-.642zm-7.701 79.649c-1.742-.103-3.586-1.3-5.541-2.14-1.631-.7-3.254-1.402-4.953-1.916-.708-.213-.99-.539-.75-1.274.921-2.78.725-5.706 1.186-8.547.35-2.138 1.118-3.978 3.261-5.013 1.162-.556 1.768-.539 2.255.838 1.81 5.03 4.456 9.616 7.718 13.851a.55.55 0 0 1 .077.137c.299.813 1.827 1.112 1.272 2.139-.632 1.155-1.981 1.582-3.245 1.925-.239.05-.529 0-1.28 0zm.247-72.223c.717-.034 1.34.043 1.964.265 2.57.941 2.74 1.609 1.076 3.713-3.381 4.286-5.977 9.017-7.864 14.125-.393 1.06-.837 1.24-1.827.83-1.853-.753-2.911-2.08-3.338-4.013-.717-3.285-.572-6.699-1.529-9.95-.162-.555.197-.82.632-.94 2.972-.822 5.576-2.507 8.436-3.576.81-.3 1.63-.557 2.45-.454zm54.02 89.058c.094 2.49-1.562 3.765-3.065 5.022-2.135 1.788-4.431 3.379-6.617 5.108-.547.427-.87.41-1.358-.035-2.237-2.019-4.815-3.584-7.189-5.415-1.784-1.386-2.817-3.242-2.407-5.612.145-.83.358-1.335 1.562-1.112 5.686 1.052 11.415 1.061 17.127.077 1.7-.3 1.956-.017 1.947 1.967zm43.766-42.612c-3.168-.009-3.313-.283-2.937-2.498.871-5.108.734-10.232.111-15.357-.094-.804-.803-1.83-.111-2.352.948-.71 2.262-.625 3.424-.248 1.622.521 2.655 1.822 3.662 3.062 1.691 2.07 3.236 4.27 4.91 6.357.486.607.435.94-.051 1.48-1.99 2.19-3.544 4.705-5.328 7.049-1.144 1.489-2.673 2.438-3.68 2.507zM99.766 20.361c.043.796-.247 1.48-.615 2.147-1.11 1.977-1.57 2.028-3.364.625-4.328-3.396-9.041-6.143-14.232-8.008-1.332-.479-1.264-1.035-.794-2.138.845-1.96 2.416-2.84 4.346-3.166 2.996-.504 6.079-.487 9.041-1.292.461-.128 1.144-.29 1.358.454 1.024 3.508 3.142 6.57 4.038 10.12.103.42.145.839.222 1.258zm-70.378 82.385c.333.257.623.488.913.71 4.739 3.662 9.845 6.673 15.505 8.701.76.274.82.581.598 1.274-.769 2.447-2.638 3.773-5.789 4.038-2.664.223-5.319.505-7.932 1.087-.572.128-1.101.308-1.297-.419-.905-3.277-2.946-6.083-3.877-9.334-.546-1.891-.367-3.721 1.033-5.261.256-.265.547-.505.846-.796zm44.474-91.727c0 1.531-.213 1.72-2.442 1.377-5.541-.855-11.082-.924-16.59.231-.99.205-1.374-.222-1.562-1.086-.47-2.208.504-3.876 2.075-5.236 2.468-2.139 5.37-3.721 7.753-5.971.358-.334.64-.505 1.067-.077 2.28 2.31 5.2 3.772 7.65 5.843 1.246 1.043 2.1 2.43 2.049 4.919zm33.589 88.776c-.88-.043-1.324 0-1.734-.094-.973-.214-1.784-.787-2.45-1.472-1.178-1.215.435-1.694.871-2.25 3.458-4.448 6.181-9.282 8.102-14.56.333-.916.718-.993 1.529-.72 2.057.685 3.107 2.182 3.56 4.193.734 3.293.495 6.716 1.392 9.984.128.479-.222.71-.589.812-3.083.847-5.764 2.627-8.752 3.688-.768.282-1.554.479-1.929.419zm11.27-67.371c-.914 3.122-.803 6.202-1.255 9.205-.342 2.31-1.384 4.132-3.774 4.936-.752.248-1.127.197-1.435-.65-2.057-5.757-5.097-10.968-9.024-15.647-.564-.667-.35-.975.162-1.412 1.545-1.343 3.372-1.762 5.268-1.18 3.278 1.018 6.216 2.917 9.52 3.91.495.145.674.504.538.838z" fill="#75C69A"/><path d="M63.514 112.388c-26.903 0-48.786-21.927-48.786-48.884S36.61 14.62 63.514 14.62c26.903 0 48.786 21.927 48.786 48.884s-21.883 48.884-48.786 48.884zm0-94.44c-25.068 0-45.465 20.438-45.465 45.556s20.397 45.556 45.465 45.556c25.068 0 45.465-20.438 45.465-45.556S88.582 17.948 63.514 17.948z" fill="#75C69A"/><path d="M74.665 84.858l-5.089-.043v-.009l-9.98-.085-2.502-4.432 15.07.137 5.088.043 14.668.128-5.814-10.3 2.595-4.372 9.75 17.281a40.075 40.075 0 0 0 4.97-19.394 40.042 40.042 0 0 0-4.97-19.386L87.285 63.418l.008.009-5.028 8.487.025.017-3.56 6.057-5.089-.043L80.6 66.122l5.823-9.881-.009-.009 5.481-9.325-11.125-.102-2.501-4.432 19.1.171c-6.831-10.976-18.793-18.402-32.53-18.924l9.349 16.563 6.232 11.044 2.972 5.27-2.587 4.39L75.04 50.67l-6.25-11.06-.016.008-4.807-8.52-5.055 8.614-5.088-.034 9.46-16.092h-.026c-14.122 0-26.536 7.315-33.69 18.36l19.039.17v.017l8.845.06v.009l9.998.077 2.493 4.431-12.09-.11v-.018l-10.134-.068-12.594-.112 5.806 10.284-2.578 4.388-9.836-17.41a40.083 40.083 0 0 0-5.405 20.148 40.16 40.16 0 0 0 5.038 19.514L39.753 63.59v-.009l2.578-4.389v.009l5.994-10.19 5.089.035-8.572 14.586-2.579 4.39-7.103 12.07 11.099.103 2.502 4.431-19.97-.18c6.906 11.55 19.423 19.335 33.784 19.575L51.646 84.652h-.017l-2.501-4.431h.017l-5.473-9.702 2.578-4.389 6.028 10.677h-.008l6.24 11.036 4.543 8.06 5.063-8.616 5.08.043-9.818 16.699c14.335-.042 26.894-7.614 33.955-18.975l-22.668-.197z" fill="#75C69A"/></g><defs><clipPath id="a"><path fill="#fff" d="M0 0h518v127H0z"/></clipPath></defs></svg>