<svg width="296" height="88" viewBox="0 0 296 88" fill="none" xmlns="http://www.w3.org/2000/svg"><path d="M294.032 77.604c0 4.658-3.764 8.433-8.406 8.433H10.374c-4.642 0-8.418-3.763-8.418-8.433V10.396c0-4.658 3.776-8.434 8.418-8.434h275.24c4.642 0 8.405 3.776 8.405 8.434l.013 67.208z" fill="#fff"/><path d="M285.626 88H10.374C4.654 88 .012 83.355 0 77.616v-67.22C.012 4.658 4.655 0 10.374 0h275.24c5.719.012 10.361 4.658 10.374 10.396v67.208C296 83.342 291.333 88 285.626 88z" fill="#A6A5A5"/><path d="M294.032 77.604c0 4.658-3.764 8.433-8.406 8.433H10.374c-4.642 0-8.418-3.763-8.418-8.433V10.396c0-4.658 3.776-8.434 8.418-8.434h275.24c4.642 0 8.405 3.776 8.405 8.434l.013 67.208z" fill="#020202"/><path opacity=".1" d="M285.626 0H138.189l57.75 88h89.687c5.719 0 10.362-4.658 10.374-10.396V10.396C295.988 4.658 291.345 0 285.626 0z" fill="#fff"/><path d="M104.592 26.605c0 1.726-.433 3.23-1.498 4.297-1.287 1.292-2.785 1.938-4.716 1.938s-3.43-.646-4.717-1.938c-1.287-1.291-1.93-2.794-1.93-4.732 0-1.938.643-3.44 1.93-4.732 1.288-1.292 2.786-1.938 4.717-1.938.854 0 1.721.211 2.575.646.854.435 1.498.857 1.931 1.503l-1.077 1.08c-.854-1.08-1.931-1.502-3.43-1.502-1.287 0-2.574.434-3.428 1.503-1.077.857-1.498 2.148-1.498 3.651 0 1.503.433 2.795 1.498 3.652 1.077.857 2.141 1.503 3.429 1.503 1.498 0 2.575-.435 3.639-1.503.644-.646 1.077-1.503 1.077-2.584h-4.716v-1.726h6.214v.882zm9.854-5.378h-5.793v4.086h5.36v1.503h-5.36v4.086h5.793v1.727h-7.502V19.724h7.502v1.503zm7.081 11.402h-1.721V21.227h-3.639v-1.503h9v1.503h-3.64v11.402zm9.866 0V19.724h1.721v12.905h-1.721zm9 0h-1.721V21.227h-3.639v-1.503h8.789v1.503h-3.639v11.402h.21zm20.364-1.727c-1.288 1.292-2.785 1.938-4.717 1.938-1.931 0-3.429-.646-4.716-1.938-1.288-1.291-1.931-2.794-1.931-4.732 0-1.938.643-3.44 1.931-4.732 1.287-1.292 2.785-1.938 4.716-1.938 1.932 0 3.429.646 4.717 1.938 1.287 1.292 1.931 2.795 1.931 4.732 0 1.938-.644 3.44-1.931 4.732zm-8.146-1.08c.854.857 2.142 1.503 3.429 1.503 1.288 0 2.575-.435 3.429-1.503a5.194 5.194 0 0 0 1.498-3.652c0-1.503-.433-2.795-1.498-3.652-.854-.857-2.141-1.502-3.429-1.502-1.287 0-2.575.434-3.429 1.503a5.198 5.198 0 0 0-1.498 3.651c0 1.503.421 2.795 1.498 3.652zm12.429 2.807V19.724h1.931l6.215 10.11v-10.11h1.72v12.905h-1.72l-6.648-10.545v10.545h-1.498zM148.972 48.75c-5.15 0-9.223 3.876-9.223 9.254 0 5.167 4.073 9.254 9.223 9.254s9.222-3.876 9.222-9.254c-.012-5.59-4.085-9.253-9.222-9.253zm0 14.632c-2.786 0-5.15-2.36-5.15-5.589 0-3.23 2.352-5.59 5.15-5.59 2.785 0 5.15 2.15 5.15 5.59-.013 3.217-2.365 5.59-5.15 5.59zm-19.943-14.631c-5.15 0-9.223 3.875-9.223 9.253 0 5.167 4.073 9.254 9.223 9.254s9.222-3.876 9.222-9.254c0-5.59-4.072-9.253-9.222-9.253zm0 14.631c-2.785 0-5.15-2.36-5.15-5.589 0-3.23 2.352-5.59 5.15-5.59 2.798 0 5.15 2.15 5.15 5.59 0 3.217-2.365 5.59-5.15 5.59zm-23.793-11.837v3.876h9.222c-.21 2.148-1.077 3.875-2.141 4.943-1.288 1.292-3.429 2.795-7.069 2.795-5.793 0-10.076-4.521-10.076-10.322 0-5.8 4.506-10.321 10.076-10.321 2.996 0 5.361 1.291 7.069 2.794l2.785-2.794c-2.352-2.15-5.36-3.875-9.643-3.875-7.713 0-14.36 6.458-14.36 14.196 0 7.738 6.647 14.197 14.36 14.197 4.283 0 7.291-1.292 9.866-4.086 2.575-2.584 3.429-6.236 3.429-9.03 0-.857 0-1.727-.21-2.36l-13.308-.013zm97.326 3.019c-.855-2.15-2.996-5.813-7.713-5.813-4.716 0-8.579 3.652-8.579 9.253 0 5.167 3.863 9.254 9 9.254 4.073 0 6.648-2.584 7.502-4.087l-2.996-2.149c-1.077 1.503-2.352 2.584-4.506 2.584-2.141 0-3.429-.857-4.506-2.795l12.218-5.167-.42-1.08zm-12.429 3.005c0-3.44 2.785-5.378 4.716-5.378 1.498 0 2.996.857 3.429 1.938l-8.145 3.44zm-10.077 8.82h4.073v-26.88h-4.073v26.88zm-6.437-15.7c-1.077-1.081-2.785-2.15-4.927-2.15-4.506 0-8.789 4.087-8.789 9.254s4.072 9.03 8.789 9.03c2.142 0 3.862-1.08 4.716-2.149h.211v1.292c0 3.44-1.931 5.378-4.927 5.378-2.352 0-4.073-1.726-4.506-3.23l-3.429 1.504c1.077 2.36 3.639 5.378 8.145 5.378 4.717 0 8.579-2.795 8.579-9.465V49.186h-3.862v1.502zm-4.717 12.693c-2.785 0-5.149-2.36-5.149-5.589 0-3.23 2.352-5.59 5.149-5.59 2.786 0 4.927 2.36 4.927 5.59 0 3.217-2.141 5.59-4.927 5.59zm52.315-23.872h-9.643V66.4h4.072V56.29h5.571c4.506 0 8.789-3.23 8.789-8.384s-4.295-8.396-8.789-8.396zm.21 12.905h-5.793v-9.253h5.793c2.996 0 4.717 2.583 4.717 4.52-.21 2.36-1.931 4.733-4.717 4.733zm24.66-3.875c-2.996 0-6.004 1.291-7.069 4.086l3.64 1.503c.854-1.503 2.142-1.938 3.639-1.938 2.142 0 4.073 1.292 4.284 3.44v.212c-.644-.435-2.352-1.08-4.073-1.08-3.862 0-7.712 2.148-7.712 6.023 0 3.652 3.218 6.024 6.647 6.024 2.786 0 4.073-1.291 5.15-2.583h.21v2.149h3.863V56.054c-.434-4.72-4.085-7.514-8.579-7.514zm-.433 14.842c-1.288 0-3.219-.645-3.219-2.36 0-2.148 2.352-2.794 4.283-2.794 1.721 0 2.575.434 3.64.857-.421 2.57-2.563 4.297-4.704 4.297zm22.505-14.196l-4.506 11.613h-.21l-4.717-11.613h-4.283l7.068 16.345-4.072 9.03h4.072l10.931-25.375h-4.283zm-36.011 17.202h4.073V39.51h-4.073v26.878z" fill="#fff"/><path d="M31.852 17.86c-.644.647-.854 1.727-.854 3.007V68.4c0 1.292.433 2.36 1.077 3.006l.21.211 26.578-26.654v-.435L31.852 17.86z" fill="url(#a)"/><path d="M67.442 53.992l-8.79-8.818v-.646l8.79-8.819.21.211 10.51 6.024c2.996 1.727 2.996 4.521 0 6.235l-10.72 5.813z" fill="url(#b)"/><path d="M67.653 53.781l-9-9.03L31.852 71.63c1.077 1.08 2.575 1.08 4.506.21l31.295-18.059z" fill="url(#c)"/><path d="M67.653 35.71L36.358 17.86c-1.931-1.08-3.43-.856-4.506.212l26.8 26.667 9-9.03z" fill="url(#d)"/><defs><linearGradient id="a" x1="44.933" y1="17.701" x2="44.933" y2="71.23" gradientUnits="userSpaceOnUse"><stop stop-color="#2A7CAF"/><stop offset=".286" stop-color="#4B92B4"/><stop offset=".767" stop-color="#7ABDBB"/><stop offset="1" stop-color="#88CFBD"/></linearGradient><linearGradient id="b" x1="72.525" y1="38.282" x2="65.983" y2="53.032" gradientUnits="userSpaceOnUse"><stop stop-color="#F58979"/><stop offset=".119" stop-color="#F6917B"/><stop offset=".713" stop-color="#FBB877"/><stop offset="1" stop-color="#FEC974"/></linearGradient><linearGradient id="c" x1="62.849" y1="49.509" x2="33.496" y2="73.168" gradientUnits="userSpaceOnUse"><stop stop-color="#EB423D"/><stop offset=".167" stop-color="#D94553"/><stop offset=".575" stop-color="#B0497B"/><stop offset=".862" stop-color="#964C93"/><stop offset="1" stop-color="#894C9E"/></linearGradient><linearGradient id="d" x1="35.651" y1="19.153" x2="63.723" y2="40.518" gradientUnits="userSpaceOnUse"><stop stop-color="#55C1AD"/><stop offset="1" stop-color="#DDE79A"/></linearGradient></defs></svg>