<svg width="518" height="227" viewBox="0 0 518 227" fill="none" xmlns="http://www.w3.org/2000/svg">
<g filter="url(#filter0_d)">
<path d="M459.211 187.91H53.3292C42.9844 187.91 34.53 179.94 34.53 170.21V53.27C34.53 43.53 42.995 35.57 53.3292 35.57H459.201C469.546 35.57 478 43.54 478 53.27V170.21C478.011 179.94 469.546 187.91 459.211 187.91Z" fill="white"/>
<path d="M205.865 115.805H213.748L212.261 111.616C211.841 110.355 211.435 109.168 211.045 108.057C210.685 106.946 210.309 105.73 209.919 104.409H209.829C209.408 105.64 209.003 106.841 208.612 108.012C208.222 109.153 207.802 110.355 207.351 111.616L205.865 115.805ZM207.216 98.5078H212.712L223.477 126.886H217.666L215.144 119.904H204.558L202.036 126.886H196.315L207.216 98.5078ZM231.998 126.886H226.683V105.49H230.827L231.502 108.327C232.523 107.306 233.62 106.511 234.791 105.94C235.962 105.37 237.268 105.084 238.71 105.084C241.022 105.084 242.809 105.73 244.07 107.021C245.331 108.282 245.962 110.084 245.962 112.427V126.886H240.646V113.057C240.646 111.916 240.346 111 239.746 110.309C239.175 109.589 238.304 109.228 237.133 109.228C236.262 109.228 235.376 109.469 234.475 109.949C233.575 110.4 232.749 111.015 231.998 111.796V126.886ZM251.72 107.382C253.041 106.661 254.377 106.105 255.729 105.715C257.08 105.295 258.566 105.084 260.188 105.084C261.449 105.084 262.59 105.234 263.611 105.535C264.632 105.805 265.518 106.255 266.269 106.886C267.02 107.517 267.59 108.343 267.981 109.364C268.401 110.355 268.611 111.571 268.611 113.012V126.886H264.422L263.882 124.634H263.747C262.215 126.435 260.038 127.336 257.215 127.336C254.963 127.336 253.206 126.751 251.945 125.58C250.684 124.378 250.053 122.832 250.053 120.94C250.053 119.739 250.308 118.703 250.819 117.832C251.329 116.961 252.02 116.24 252.891 115.67C253.792 115.099 254.858 114.679 256.089 114.409C257.32 114.108 258.657 113.958 260.098 113.958H263.251V112.472C263.251 111.3 262.906 110.475 262.215 109.994C261.524 109.484 260.593 109.228 259.422 109.228C258.581 109.228 257.681 109.364 256.72 109.634C255.789 109.904 254.753 110.37 253.612 111.03L251.72 107.382ZM263.296 117.336L260.864 117.426C258.882 117.487 257.5 117.832 256.72 118.463C255.939 119.063 255.548 119.799 255.548 120.67C255.548 121.781 255.879 122.532 256.539 122.922C257.2 123.312 257.966 123.507 258.837 123.507C259.708 123.507 260.533 123.297 261.314 122.877C262.125 122.426 262.786 121.811 263.296 121.03V117.336ZM279.287 126.886H273.972V94.8142H279.287V107.697C280.188 106.946 281.209 106.331 282.35 105.85C283.521 105.34 284.782 105.084 286.134 105.084C287.395 105.084 288.476 105.279 289.377 105.67C290.308 106.03 291.074 106.541 291.674 107.201C292.275 107.862 292.71 108.643 292.98 109.544C293.281 110.445 293.431 111.436 293.431 112.517V126.886H288.116V113.553C288.116 112.021 287.8 110.925 287.17 110.264C286.569 109.574 285.668 109.228 284.467 109.228C283.596 109.228 282.71 109.439 281.809 109.859C280.909 110.279 280.068 110.865 279.287 111.616V126.886ZM299.448 107.382C300.769 106.661 302.105 106.105 303.456 105.715C304.808 105.295 306.294 105.084 307.916 105.084C309.177 105.084 310.318 105.234 311.339 105.535C312.36 105.805 313.246 106.255 313.997 106.886C314.748 107.517 315.318 108.343 315.709 109.364C316.129 110.355 316.339 111.571 316.339 113.012V126.886H312.15L311.61 124.634H311.474C309.943 126.435 307.766 127.336 304.943 127.336C302.691 127.336 300.934 126.751 299.673 125.58C298.411 124.378 297.781 122.832 297.781 120.94C297.781 119.739 298.036 118.703 298.547 117.832C299.057 116.961 299.748 116.24 300.619 115.67C301.52 115.099 302.586 114.679 303.817 114.409C305.048 114.108 306.384 113.958 307.826 113.958H310.979V112.472C310.979 111.3 310.634 110.475 309.943 109.994C309.252 109.484 308.321 109.228 307.15 109.228C306.309 109.228 305.408 109.364 304.447 109.634C303.517 109.904 302.48 110.37 301.339 111.03L299.448 107.382ZM311.024 117.336L308.592 117.426C306.61 117.487 305.228 117.832 304.447 118.463C303.667 119.063 303.276 119.799 303.276 120.67C303.276 121.781 303.607 122.532 304.267 122.922C304.928 123.312 305.694 123.507 306.565 123.507C307.435 123.507 308.261 123.297 309.042 122.877C309.853 122.426 310.513 121.811 311.024 121.03V117.336ZM335.573 94.8142H340.888V126.886H336.925L336.339 124.544H336.159C335.468 125.354 334.627 126.03 333.636 126.571C332.645 127.081 331.369 127.336 329.808 127.336C328.546 127.336 327.345 127.096 326.204 126.616C325.063 126.135 324.057 125.429 323.186 124.498C322.345 123.538 321.669 122.366 321.159 120.985C320.678 119.604 320.438 118.012 320.438 116.21C320.438 114.529 320.648 113.012 321.069 111.661C321.519 110.279 322.165 109.108 323.006 108.147C323.847 107.156 324.868 106.406 326.069 105.895C327.3 105.355 328.681 105.084 330.213 105.084C331.264 105.084 332.255 105.249 333.186 105.58C334.147 105.88 334.943 106.316 335.573 106.886V94.8142ZM335.573 110.985C335.063 110.385 334.462 109.904 333.771 109.544C333.081 109.183 332.315 109.003 331.474 109.003C330.723 109.003 330.003 109.138 329.312 109.409C328.651 109.649 328.051 110.054 327.51 110.625C327 111.195 326.579 111.931 326.249 112.832C325.949 113.733 325.799 114.814 325.799 116.075C325.799 117.336 325.934 118.432 326.204 119.363C326.504 120.294 326.895 121.06 327.375 121.661C327.856 122.231 328.411 122.667 329.042 122.967C329.702 123.237 330.393 123.372 331.114 123.372C332.105 123.372 332.976 123.147 333.726 122.697C334.477 122.216 335.093 121.601 335.573 120.85V110.985ZM363.872 115.805H371.755L370.269 111.616C369.848 110.355 369.443 109.168 369.053 108.057C368.692 106.946 368.317 105.73 367.926 104.409H367.836C367.416 105.64 367.011 106.841 366.62 108.012C366.23 109.153 365.809 110.355 365.359 111.616L363.872 115.805ZM365.224 98.5078H370.719L381.485 126.886H375.674L373.152 119.904H362.566L360.044 126.886H354.323L365.224 98.5078ZM394.375 127.336C393.504 127.336 392.663 127.231 391.852 127.021C391.072 126.811 390.411 126.525 389.87 126.165V137.246H384.6V105.355H388.699L389.33 107.877C390.171 107.066 391.132 106.406 392.213 105.895C393.294 105.355 394.525 105.084 395.906 105.084C398.729 105.084 400.951 106.03 402.573 107.922C404.225 109.784 405.05 112.397 405.05 115.76C405.05 117.682 404.75 119.363 404.15 120.805C403.579 122.246 402.798 123.462 401.807 124.453C400.846 125.414 399.72 126.135 398.429 126.616C397.138 127.096 395.786 127.336 394.375 127.336ZM394.555 109.183C393.474 109.183 392.528 109.454 391.717 109.994C390.906 110.505 390.291 111.015 389.87 111.526V122.156C390.381 122.577 390.967 122.892 391.627 123.102C392.288 123.282 392.979 123.372 393.699 123.372C394.42 123.372 395.126 123.237 395.816 122.967C396.507 122.697 397.123 122.276 397.663 121.706C398.234 121.105 398.684 120.339 399.014 119.408C399.375 118.447 399.555 117.276 399.555 115.895C399.555 113.913 399.135 112.306 398.294 111.075C397.483 109.814 396.237 109.183 394.555 109.183ZM419.141 127.336C418.27 127.336 417.429 127.231 416.618 127.021C415.837 126.811 415.177 126.525 414.636 126.165V137.246H409.366V105.355H413.465L414.096 107.877C414.936 107.066 415.897 106.406 416.978 105.895C418.06 105.355 419.291 105.084 420.672 105.084C423.495 105.084 425.717 106.03 427.339 107.922C428.99 109.784 429.816 112.397 429.816 115.76C429.816 117.682 429.516 119.363 428.915 120.805C428.345 122.246 427.564 123.462 426.573 124.453C425.612 125.414 424.486 126.135 423.195 126.616C421.903 127.096 420.552 127.336 419.141 127.336ZM419.321 109.183C418.24 109.183 417.294 109.454 416.483 109.994C415.672 110.505 415.057 111.015 414.636 111.526V122.156C415.147 122.577 415.732 122.892 416.393 123.102C417.054 123.282 417.744 123.372 418.465 123.372C419.186 123.372 419.891 123.237 420.582 122.967C421.273 122.697 421.888 122.276 422.429 121.706C422.999 121.105 423.45 120.339 423.78 119.408C424.141 118.447 424.321 117.276 424.321 115.895C424.321 113.913 423.9 112.306 423.059 111.075C422.249 109.814 421.002 109.183 419.321 109.183Z" fill="black"/>
<path d="M155.72 54.67H63.94C57.65 54.67 52.5 59.82 52.5 66.11V157.89C52.5 164.18 57.65 169.33 63.94 169.33H155.72C162.01 169.33 167.16 164.18 167.16 157.89V66.12C167.16 59.82 162.01 54.67 155.72 54.67Z" fill="#75C69A"/>
<path d="M132.72 139.44C132.64 140.58 132.17 141.6 131.69 142.6C131.13 143.8 130.57 144.99 130.18 146.26C130.05 146.68 129.91 147.02 129.34 146.84C127.58 146.28 125.72 146.38 123.92 146.09C122.52 145.87 121.33 145.35 120.69 143.94C120.4 143.29 120.39 142.93 121.17 142.65C124.36 141.5 127.28 139.86 129.96 137.8C130.01 137.76 130.07 137.72 130.14 137.7C130.65 137.51 130.85 136.54 131.5 136.9C132.21 137.3 132.57 138.1 132.72 138.93C132.74 139.09 132.72 139.27 132.72 139.44Z" fill="white"/>
<path d="M76.31 118.6C74.66 118.68 73.83 117.56 72.99 116.57C71.9 115.28 70.94 113.88 69.88 112.56C69.58 112.19 69.57 111.98 69.89 111.62C71.17 110.21 72.2 108.61 73.32 107.08C74.25 105.81 75.53 105.35 77.08 105.57C77.54 105.64 77.71 105.8 77.6 106.31C77.04 108.84 77.09 111.42 77.12 113.99C77.14 115.04 77.29 116.07 77.49 117.1C77.73 118.41 77.58 118.6 76.31 118.6Z" fill="white"/>
<path d="M86.91 84.6C86.85 83.93 87.1 83.23 87.44 82.56C88.2 81.08 88.85 79.56 89.37 77.99C89.55 77.45 89.75 77.24 90.39 77.43C92.38 78 94.49 77.79 96.51 78.29C97.76 78.6 98.61 79.29 99 80.55C99.15 81.05 99.08 81.3 98.53 81.5C95.43 82.65 92.52 84.16 89.89 86.18C89.78 86.26 89.66 86.32 89.55 86.4C89.09 86.74 88.66 87.52 88.1 87.22C87.32 86.8 86.9 85.96 86.91 85C86.92 84.9 86.91 84.8 86.91 84.6Z" fill="white"/>
<path d="M82.05 134.88C80.95 134.81 79.78 134.06 78.54 133.53C77.51 133.09 76.48 132.64 75.41 132.32C74.96 132.19 74.78 131.98 74.94 131.51C75.52 129.76 75.4 127.91 75.69 126.11C75.91 124.76 76.4 123.6 77.75 122.94C78.48 122.59 78.87 122.6 79.18 123.47C80.32 126.65 82 129.54 84.06 132.21C84.08 132.24 84.1 132.27 84.11 132.3C84.3 132.81 85.27 133 84.91 133.65C84.51 134.38 83.66 134.65 82.86 134.86C82.7 134.91 82.52 134.88 82.05 134.88Z" fill="white"/>
<path d="M82.2 89.28C82.65 89.26 83.05 89.3 83.44 89.45C85.06 90.05 85.17 90.47 84.12 91.79C81.98 94.49 80.34 97.48 79.14 100.71C78.89 101.38 78.61 101.49 77.98 101.24C76.81 100.76 76.14 99.93 75.87 98.71C75.42 96.63 75.51 94.48 74.91 92.43C74.81 92.08 75.03 91.91 75.31 91.84C77.19 91.32 78.84 90.26 80.65 89.58C81.16 89.38 81.68 89.22 82.2 89.28Z" fill="white"/>
<path d="M116.37 145.51C116.43 147.08 115.38 147.89 114.43 148.68C113.08 149.81 111.63 150.81 110.25 151.91C109.91 152.18 109.7 152.17 109.39 151.89C107.98 150.62 106.34 149.63 104.84 148.47C103.71 147.6 103.06 146.42 103.32 144.92C103.41 144.4 103.54 144.08 104.31 144.22C107.91 144.88 111.53 144.89 115.14 144.27C116.22 144.08 116.38 144.26 116.37 145.51Z" fill="white"/>
<path d="M144.06 118.6C142.06 118.59 141.96 118.42 142.2 117.02C142.75 113.8 142.66 110.56 142.27 107.32C142.21 106.81 141.76 106.16 142.2 105.84C142.8 105.39 143.63 105.45 144.37 105.68C145.39 106.01 146.05 106.83 146.69 107.61C147.76 108.92 148.74 110.31 149.8 111.62C150.11 112 150.08 112.22 149.77 112.55C148.51 113.93 147.53 115.52 146.4 117C145.67 117.97 144.7 118.56 144.06 118.6Z" fill="white"/>
<path d="M132.76 84.77C132.79 85.27 132.61 85.7 132.37 86.13C131.67 87.38 131.37 87.41 130.24 86.52C127.5 84.38 124.52 82.64 121.24 81.47C120.4 81.17 120.44 80.82 120.74 80.12C121.27 78.88 122.27 78.33 123.49 78.12C125.39 77.8 127.33 77.81 129.21 77.31C129.5 77.23 129.93 77.13 130.07 77.6C130.72 79.81 132.06 81.75 132.63 83.99C132.68 84.24 132.71 84.51 132.76 84.77Z" fill="white"/>
<path d="M88.24 136.79C88.45 136.95 88.64 137.1 88.82 137.24C91.82 139.55 95.05 141.45 98.63 142.73C99.11 142.9 99.15 143.1 99.01 143.54C98.53 145.08 97.34 145.92 95.35 146.09C93.66 146.23 91.98 146.41 90.33 146.78C89.97 146.86 89.63 146.97 89.51 146.52C88.94 144.45 87.65 142.68 87.06 140.63C86.72 139.44 86.83 138.28 87.72 137.31C87.87 137.12 88.05 136.97 88.24 136.79Z" fill="white"/>
<path d="M116.37 78.88C116.37 79.85 116.23 79.97 114.82 79.75C111.31 79.21 107.81 79.16 104.32 79.9C103.7 80.03 103.45 79.76 103.33 79.21C103.03 77.82 103.65 76.76 104.64 75.9C106.2 74.55 108.04 73.55 109.55 72.13C109.78 71.92 109.96 71.81 110.22 72.08C111.66 73.54 113.51 74.46 115.06 75.77C115.87 76.43 116.41 77.3 116.37 78.88Z" fill="white"/>
<path d="M137.62 134.92C137.06 134.9 136.78 134.92 136.52 134.86C135.9 134.73 135.39 134.36 134.97 133.93C134.23 133.16 135.25 132.86 135.52 132.51C137.71 129.7 139.43 126.65 140.65 123.32C140.86 122.74 141.1 122.69 141.62 122.87C142.92 123.3 143.59 124.25 143.87 125.52C144.33 127.6 144.18 129.76 144.75 131.82C144.83 132.12 144.61 132.27 144.38 132.33C142.43 132.87 140.73 133.99 138.84 134.66C138.35 134.84 137.86 134.96 137.62 134.92Z" fill="white"/>
<path d="M144.75 92.39C144.17 94.36 144.24 96.31 143.96 98.2C143.74 99.66 143.08 100.81 141.57 101.32C141.1 101.48 140.86 101.45 140.66 100.91C139.36 97.28 137.44 93.99 134.95 91.03C134.6 90.61 134.73 90.42 135.05 90.14C136.03 89.29 137.18 89.03 138.38 89.4C140.45 90.04 142.31 91.24 144.4 91.87C144.72 91.95 144.84 92.18 144.75 92.39Z" fill="white"/>
<path d="M109.83 142.87C92.81 142.87 78.97 129.02 78.97 112.01C78.97 95 92.82 81.15 109.83 81.15C126.84 81.15 140.69 95 140.69 112.01C140.69 129.02 126.85 142.87 109.83 142.87ZM109.83 83.25C93.97 83.25 81.07 96.15 81.07 112.01C81.07 127.87 93.97 140.77 109.83 140.77C125.69 140.77 138.59 127.87 138.59 112.01C138.59 96.15 125.69 83.25 109.83 83.25Z" fill="white"/>
<path d="M116.88 125.49L113.66 125.46L107.34 125.4L105.75 122.6L115.28 122.68L118.5 122.71L127.78 122.79L124.1 116.28L125.74 113.52L131.91 124.43C133.91 120.8 135.05 116.63 135.05 112.19C135.05 107.75 133.91 103.58 131.91 99.95L124.84 111.94V111.95L121.66 117.31L121.67 117.32L119.42 121.15L116.2 121.12L120.6 113.65L124.28 107.41L127.75 101.53L120.71 101.47L119.13 98.67L131.21 98.78C126.89 91.85 119.32 87.16 110.63 86.83L116.54 97.29L120.48 104.26L122.36 107.59L120.73 110.36L117.08 103.91L113.15 96.93L113.14 96.94L110.1 91.56L106.9 96.99L103.68 96.97L109.67 86.81C109.66 86.81 109.66 86.81 109.65 86.81C100.72 86.81 92.86 91.43 88.34 98.4L100.38 98.51V98.52L105.98 98.56L112.3 98.62L113.88 101.42L106.23 101.35V101.34L99.82 101.3L91.85 101.23L95.52 107.72L93.89 110.49L87.67 99.5C85.5 103.24 84.25 107.58 84.25 112.22C84.25 116.69 85.41 120.89 87.44 124.54L94.78 112.08L96.41 109.31L100.2 102.88L103.42 102.9L97.99 112.11L96.36 114.88L91.87 122.5L98.89 122.56L100.48 125.36L87.85 125.25C92.22 132.54 100.14 137.46 109.22 137.61L102.3 125.38H102.29L100.7 122.58H100.71L97.25 116.46L98.88 113.69L102.69 120.43L106.64 127.4L109.52 132.49L112.72 127.05L115.94 127.08L109.73 137.62C118.8 137.59 126.74 132.81 131.21 125.64L116.88 125.49Z" fill="white"/>
</g>
<defs>
<filter id="filter0_d" x="0.530029" y="0.570007" width="517.47" height="226.34" filterUnits="userSpaceOnUse" color-interpolation-filters="sRGB">
<feFlood flood-opacity="0" result="BackgroundImageFix"/>
<feColorMatrix in="SourceAlpha" type="matrix" values="0 0 0 0 0 0 0 0 0 0 0 0 0 0 0 0 0 0 127 0" result="hardAlpha"/>
<feOffset dx="3" dy="2"/>
<feGaussianBlur stdDeviation="18.5"/>
<feColorMatrix type="matrix" values="0 0 0 0 0.443137 0 0 0 0 0.792157 0 0 0 0 0.607843 0 0 0 0.4 0"/>
<feBlend mode="normal" in2="BackgroundImageFix" result="effect1_dropShadow"/>
<feBlend mode="normal" in="SourceGraphic" in2="effect1_dropShadow" result="shape"/>
</filter>
</defs>
</svg>
