<svg width="295" height="88" viewBox="0 0 295 88" fill="none" xmlns="http://www.w3.org/2000/svg">
<path d="M293.038 77.604C293.038 82.2617 289.288 86.0375 284.661 86.0375C284.661 86.0375 284.661 86.0375 284.649 86.0375H10.3387C5.71221 86.0375 1.9493 82.2741 1.9493 77.604V10.3961C1.9493 5.73833 5.71221 1.96246 10.3387 1.96246H284.649C289.275 1.96246 293.026 5.73833 293.026 10.3961L293.038 77.604Z" fill="white"/>
<path d="M284.661 88H10.3388C4.63887 88 0.0123374 83.3547 0 77.6164V10.396C0.0123374 4.65773 4.63887 0 10.3388 0H284.649C290.349 0.0124206 294.975 4.65773 294.988 10.396V77.604C295 83.3423 290.349 88 284.661 88Z" fill="#A6A5A5"/>
<path d="M293.038 77.604C293.038 82.2617 289.288 86.0375 284.661 86.0375C284.661 86.0375 284.661 86.0375 284.649 86.0375H10.3387C5.71221 86.0375 1.9493 82.2741 1.9493 77.604V10.3961C1.9493 5.73833 5.71221 1.96246 10.3387 1.96246H284.649C289.275 1.96246 293.026 5.73833 293.026 10.3961L293.038 77.604Z" fill="#020202"/>
<path opacity="0.1" d="M284.661 0H137.723L195.277 88H284.661C290.361 88 294.988 83.3423 295 77.604V10.396C294.988 4.65773 290.361 0 284.661 0Z" fill="white"/>
<path d="M67.9792 44.7887C67.9175 37.858 73.6174 34.4796 73.8888 34.3181C70.6564 29.5734 65.6474 28.9276 63.8955 28.8779C59.6884 28.4307 55.6047 31.4117 53.4704 31.4117C51.2867 31.4117 47.9802 28.9276 44.427 28.9897C39.8499 29.0642 35.5688 31.7222 33.2247 35.8707C28.3761 44.3167 31.9909 56.7249 36.6298 63.5438C38.9492 66.8849 41.6635 70.6236 45.2166 70.4869C48.6958 70.3503 49.9912 68.2636 54.1859 68.2636C58.3437 68.2636 59.5651 70.4869 63.1799 70.4124C66.9058 70.3503 69.2623 67.0588 71.4953 63.6804C74.1849 59.8549 75.2583 56.079 75.2953 55.8803C75.1966 55.8554 68.0409 53.0981 67.9792 44.7887ZM61.1319 24.394C62.9949 22.0465 64.278 18.842 63.9202 15.5878C61.2183 15.712 57.8378 17.4758 55.8885 19.7736C54.1613 21.7981 52.6314 25.1269 53.0262 28.2444C56.0612 28.4804 59.1826 26.7043 61.1319 24.394Z" fill="white"/>
<path d="M118.304 67.5185H113.443L110.778 59.1097H101.537L99.0078 67.5185H94.2826L103.449 38.8766H109.112L118.304 67.5185ZM109.988 55.5823L107.582 48.1051C107.323 47.335 106.854 45.5464 106.151 42.7145H106.065C105.781 43.9317 105.337 45.7327 104.708 48.1051L102.339 55.5823H109.988ZM141.819 56.9485C141.819 60.4636 140.869 63.2334 138.969 65.2703C137.266 67.0837 135.156 67.9905 132.64 67.9905C129.925 67.9905 127.964 67.0216 126.779 65.0592V75.89H122.214V53.6571C122.214 51.4462 122.153 49.1857 122.042 46.8754H126.051L126.31 50.1545H126.397C127.914 47.6828 130.221 46.4531 133.318 46.4531C135.736 46.4531 137.76 47.4095 139.376 49.3471C141.004 51.2599 141.819 53.8061 141.819 56.9485ZM137.18 57.11C137.18 55.0979 136.736 53.4459 135.823 52.1418C134.836 50.7879 133.516 50.1048 131.85 50.1048C130.727 50.1048 129.703 50.4774 128.79 51.2351C127.877 51.9927 127.273 52.9739 127.001 54.1912C126.878 54.6507 126.804 55.1103 126.792 55.5823V59.0228C126.792 60.5257 127.248 61.7926 128.161 62.8235C129.074 63.8544 130.271 64.3761 131.727 64.3761C133.442 64.3761 134.774 63.7053 135.736 62.3763C136.699 61.0473 137.18 59.296 137.18 57.11ZM165.42 56.9485C165.42 60.4636 164.47 63.2334 162.57 65.2703C160.868 67.0837 158.758 67.9905 156.241 67.9905C153.527 67.9905 151.565 67.0216 150.381 65.0592V75.89H145.816V53.6571C145.816 51.4462 145.754 49.1857 145.643 46.8754H149.653L149.912 50.1545H149.998C151.516 47.6828 153.823 46.4531 156.92 46.4531C159.338 46.4531 161.361 47.4095 162.977 49.3471C164.606 51.2599 165.42 53.8061 165.42 56.9485ZM160.769 57.11C160.769 55.0979 160.312 53.4459 159.412 52.1418C158.425 50.7879 157.105 50.1048 155.451 50.1048C154.329 50.1048 153.305 50.4774 152.392 51.2351C151.479 51.9927 150.874 52.9739 150.603 54.1912C150.467 54.7625 150.393 55.2221 150.393 55.5823V59.0228C150.393 60.5257 150.85 61.7926 151.763 62.8235C152.676 63.8544 153.872 64.3761 155.328 64.3761C157.043 64.3761 158.388 63.7053 159.338 62.3763C160.288 61.0473 160.769 59.296 160.769 57.11ZM191.81 59.4948C191.81 61.9292 190.959 63.9165 189.281 65.4442C187.43 67.1086 184.839 67.9532 181.533 67.9532C178.473 67.9532 176.018 67.357 174.167 66.1646L175.216 62.3391C177.215 63.5315 179.411 64.1276 181.804 64.1276C183.519 64.1276 184.864 63.7302 185.814 62.9601C186.764 62.1776 187.257 61.1343 187.257 59.8425C187.257 58.675 186.863 57.7062 186.073 56.9113C185.283 56.1164 183.976 55.3835 182.15 54.7004C177.165 52.8249 174.673 50.0924 174.673 46.4904C174.673 44.1429 175.549 42.2177 177.313 40.7148C179.065 39.2119 181.397 38.4667 184.296 38.4667C186.887 38.4667 189.046 38.9262 190.761 39.8329L189.614 43.5715C187.998 42.6897 186.184 42.255 184.148 42.255C182.544 42.255 181.274 42.6524 180.373 43.4473C179.608 44.1553 179.226 45.0123 179.226 46.0432C179.226 47.1735 179.67 48.1175 180.533 48.8503C181.286 49.5334 182.668 50.2663 184.666 51.0612C187.122 52.0548 188.923 53.2099 190.07 54.5389C191.23 55.8555 191.81 57.5075 191.81 59.4948ZM206.911 50.3159H201.89V60.3394C201.89 62.8856 202.778 64.1649 204.554 64.1649C205.369 64.1649 206.047 64.0904 206.578 63.9538L206.701 67.4439C205.8 67.7793 204.616 67.9532 203.16 67.9532C201.359 67.9532 199.953 67.3943 198.941 66.2888C197.929 65.1834 197.423 63.3327 197.423 60.7244V50.3035H194.425V46.863H197.423V43.0871L201.902 41.7209V46.863H206.923L206.911 50.3159ZM229.55 57.0231C229.55 60.2027 228.649 62.7986 226.848 64.8356C224.96 66.9347 222.456 67.978 219.335 67.978C216.324 67.978 213.919 66.972 212.13 64.9598C210.341 62.9477 209.452 60.4139 209.452 57.3584C209.452 54.1539 210.378 51.5331 212.216 49.4962C214.067 47.4592 216.546 46.4407 219.668 46.4407C222.678 46.4407 225.096 47.4468 226.922 49.4589C228.674 51.4214 229.55 53.9427 229.55 57.0231ZM224.812 57.1348C224.812 55.2469 224.405 53.6198 223.591 52.266C222.641 50.6264 221.272 49.8067 219.495 49.8067C217.669 49.8067 216.263 50.6264 215.313 52.266C214.498 53.6198 214.091 55.2718 214.091 57.2218C214.091 59.1097 214.498 60.7368 215.313 62.0907C216.3 63.7302 217.669 64.5499 219.458 64.5499C221.198 64.5499 222.567 63.7178 223.554 62.0534C224.393 60.6623 224.812 59.0352 224.812 57.1348ZM244.367 50.9121C243.898 50.8252 243.417 50.7879 242.936 50.7879C241.332 50.7879 240.086 51.3965 239.223 52.6137C238.47 53.6943 238.088 55.0482 238.088 56.6877V67.5185H233.523V53.3714C233.523 51.1978 233.486 49.0366 233.387 46.8754H237.36L237.532 50.8252H237.656C238.137 49.4713 238.902 48.3659 239.938 47.5461C240.888 46.8257 242.048 46.4407 243.232 46.4407C243.652 46.4407 244.034 46.4655 244.367 46.5276V50.9121ZM264.761 56.2157C264.773 56.9113 264.712 57.6068 264.588 58.3024H250.906C250.955 60.3394 251.622 61.9044 252.892 62.9849C254.04 63.9413 255.533 64.4257 257.371 64.4257C259.394 64.4257 261.245 64.1028 262.91 63.4569L263.626 66.6366C261.689 67.4936 259.394 67.9159 256.742 67.9159C253.559 67.9159 251.066 66.972 249.241 65.0965C247.427 63.2085 246.514 60.6871 246.514 57.5075C246.514 54.3899 247.353 51.8064 249.055 49.7322C250.832 47.5213 253.213 46.4159 256.224 46.4159C259.184 46.4159 261.418 47.5213 262.935 49.7322C264.156 51.471 264.761 53.6447 264.761 56.2157ZM260.406 55.0358C260.443 53.6695 260.134 52.502 259.518 51.5083C258.728 50.229 257.519 49.5955 255.89 49.5955C254.398 49.5955 253.189 50.2166 252.263 51.471C251.498 52.4647 251.054 53.6571 250.918 55.0358H260.406Z" fill="white"/>
<path d="M100.229 31.2502C98.9584 31.2502 97.8604 31.1881 96.9474 31.0763V17.2274C98.2305 17.0286 99.5136 16.9293 100.809 16.9293C106.04 16.9293 108.446 19.5127 108.446 23.7358C108.446 28.6171 105.596 31.2502 100.229 31.2502ZM100.994 18.7178C100.291 18.7178 99.6863 18.7551 99.1928 18.8669V29.3871C99.4643 29.4244 99.9824 29.4492 100.71 29.4492C104.14 29.4492 106.089 27.4868 106.089 23.8103C106.077 20.5312 104.313 18.7178 100.994 18.7178ZM115.947 31.3496C112.998 31.3496 111.086 29.1387 111.086 26.1329C111.086 23.0029 113.035 20.7672 116.107 20.7672C119.007 20.7672 120.968 22.8787 120.968 25.9715C120.968 29.1387 118.957 31.3496 115.947 31.3496ZM116.033 22.4067C114.417 22.4067 113.381 23.9345 113.381 26.0584C113.381 28.1451 114.442 29.6728 116.021 29.6728C117.6 29.6728 118.661 28.0457 118.661 26.0211C118.649 23.9593 117.613 22.4067 116.033 22.4067ZM137.772 20.966L134.614 31.1136H132.553L131.245 26.7043C130.925 25.6237 130.653 24.5307 130.431 23.4252H130.394C130.234 24.5307 129.913 25.6361 129.58 26.7043L128.186 31.1136H126.113L123.14 20.966H125.447L126.594 25.7852C126.866 26.9403 127.088 28.0209 127.273 29.0394H127.31C127.47 28.1823 127.742 27.1142 128.136 25.7976L129.568 20.9535H131.393L132.763 25.6982C133.096 26.8533 133.367 27.9712 133.577 29.0394H133.639C133.787 27.996 134.009 26.8906 134.317 25.6982L135.539 20.9535L137.772 20.966ZM149.381 31.126H147.136V25.3007C147.136 23.4998 146.457 22.6055 145.1 22.6055C143.768 22.6055 142.855 23.7606 142.855 25.0896V31.126H140.61V23.8724C140.61 22.9781 140.585 22.0093 140.523 20.966H142.497L142.596 22.531H142.658C143.262 21.4504 144.484 20.7548 145.853 20.7548C147.975 20.7548 149.357 22.3819 149.357 25.0399L149.381 31.126ZM155.562 31.126H153.317V16.3082H155.562V31.126ZM163.73 31.3496C160.781 31.3496 158.869 29.1387 158.869 26.1329C158.869 23.0029 160.818 20.7672 163.89 20.7672C166.802 20.7672 168.751 22.8787 168.751 25.9715C168.751 29.1387 166.74 31.3496 163.73 31.3496ZM163.816 22.4067C162.2 22.4067 161.164 23.9345 161.164 26.0584C161.164 28.1451 162.225 29.6728 163.792 29.6728C165.371 29.6728 166.432 28.0457 166.432 26.0211C166.432 23.9593 165.395 22.4067 163.816 22.4067ZM177.585 31.126L177.424 29.9585H177.363C176.684 30.9024 175.685 31.362 174.414 31.362C172.613 31.362 171.33 30.0827 171.33 28.3686C171.33 25.8597 173.489 24.5679 177.227 24.5679V24.3816C177.227 23.0402 176.524 22.3819 175.13 22.3819C174.13 22.3819 173.267 22.6303 172.489 23.1396L172.033 21.6615C172.971 21.0777 174.13 20.7796 175.5 20.7796C178.14 20.7796 179.46 22.1832 179.46 24.9778V28.7164C179.46 29.7349 179.509 30.5298 179.608 31.1384L177.585 31.126ZM177.276 26.0708C174.784 26.0708 173.538 26.6794 173.538 28.1202C173.538 29.1884 174.18 29.7101 175.08 29.7101C176.215 29.7101 177.276 28.8282 177.276 27.6482V26.0708ZM190.342 31.126L190.243 29.4989H190.181C189.54 30.7286 188.454 31.362 186.949 31.362C184.518 31.362 182.717 29.2132 182.717 26.1826C182.717 23.0029 184.58 20.7672 187.134 20.7672C188.479 20.7672 189.441 21.2268 189.984 22.1459H190.033V16.3206H192.279V28.3935C192.279 29.3747 192.303 30.2938 192.365 31.126H190.342ZM190.009 25.1517C190.009 23.7358 189.071 22.5185 187.652 22.5185C185.987 22.5185 184.975 23.9966 184.975 26.0832C184.975 28.1326 186.024 29.5362 187.603 29.5362C189.009 29.5362 190.009 28.3065 190.009 26.8409V25.1517ZM206.479 31.3496C203.53 31.3496 201.63 29.1387 201.63 26.1329C201.63 23.0029 203.58 20.7672 206.652 20.7672C209.563 20.7672 211.513 22.8787 211.513 25.9715C211.5 29.1387 209.489 31.3496 206.479 31.3496ZM206.565 22.4067C204.949 22.4067 203.913 23.9345 203.913 26.0584C203.913 28.1451 204.974 29.6728 206.541 29.6728C208.12 29.6728 209.181 28.0457 209.181 26.0211C209.181 23.9593 208.145 22.4067 206.565 22.4067ZM223.554 31.126H221.309V25.3007C221.309 23.4998 220.63 22.6055 219.273 22.6055C217.94 22.6055 217.04 23.7606 217.04 25.0896V31.126H214.794V23.8724C214.794 22.9781 214.77 22.0093 214.708 20.966H216.682L216.781 22.531H216.842C217.447 21.4504 218.668 20.7548 220.038 20.7548C222.16 20.7548 223.542 22.3819 223.542 25.0399V31.126H223.554ZM238.63 22.6676H236.163V27.5986C236.163 28.853 236.595 29.4741 237.471 29.4741C237.865 29.4741 238.199 29.4368 238.47 29.3747L238.532 31.0888C238.1 31.2626 237.52 31.3372 236.792 31.3372C235.028 31.3372 233.967 30.3559 233.967 27.7849V22.6676H232.499V20.9784H233.967V19.1153L236.163 18.4446V20.966H238.63V22.6676ZM250.487 31.126H248.254V25.338C248.254 23.5246 247.575 22.6055 246.218 22.6055C245.058 22.6055 243.972 23.4004 243.972 25.0027V31.126H241.739V16.3082H243.972V22.4067H244.022C244.725 21.3013 245.749 20.7548 247.057 20.7548C249.191 20.7548 250.499 22.4192 250.499 25.0772V31.126H250.487ZM262.651 26.5925H255.927C255.964 28.5177 257.235 29.5983 259.11 29.5983C260.11 29.5983 261.023 29.4244 261.825 29.1139L262.17 30.6789C261.22 31.1012 260.097 31.2999 258.79 31.2999C255.631 31.2999 253.768 29.3002 253.768 26.1826C253.768 23.065 255.681 20.73 258.531 20.73C261.109 20.73 262.725 22.6552 262.725 25.5492C262.738 25.9094 262.713 26.2571 262.651 26.5925ZM260.591 24.9778C260.591 23.4128 259.801 22.3074 258.37 22.3074C257.087 22.3074 256.063 23.4377 255.915 24.9778H260.591Z" fill="white"/>
</svg>
