<svg width="316" height="128" viewBox="0 0 316 128" fill="none" xmlns="http://www.w3.org/2000/svg">
<path d="M310.161 59.2952C308.743 57.6783 307.044 56.8656 305.055 56.8656C304.176 56.8656 303.339 57.0196 302.528 57.319C301.717 57.627 300.991 58.1146 300.351 58.7905C299.71 59.4663 299.206 60.3304 298.831 61.3741C298.464 62.4178 298.276 63.7011 298.276 65.2239C298.276 66.7467 298.447 68.0471 298.78 69.125C299.147 70.2029 299.625 71.1012 300.197 71.8113C300.769 72.5214 301.426 73.0432 302.169 73.3854C302.946 73.6934 303.74 73.8388 304.543 73.8388C305.755 73.8388 306.814 73.5651 307.727 73.0261C308.675 72.4871 309.478 71.7257 310.152 70.7505V59.2952H310.161ZM310.161 41.2697H315.369V77.278H311.279L310.673 74.643H310.468C309.589 75.6525 308.615 76.431 307.54 76.97C306.464 77.509 305.064 77.7827 303.347 77.7827C301.998 77.7827 300.701 77.5261 299.454 77.0213C298.242 76.4824 297.149 75.6867 296.167 74.643C295.219 73.5993 294.468 72.2989 293.896 70.7419C293.324 69.1849 293.034 67.3969 293.034 65.3779C293.034 63.4872 293.273 61.7847 293.742 60.2619C294.246 58.7391 294.955 57.4388 295.868 56.3608C296.807 55.2829 297.96 54.453 299.309 53.8799C300.658 53.2724 302.186 52.9645 303.911 52.9645C305.089 52.9645 306.233 53.1527 307.352 53.5205C308.462 53.8884 309.409 54.4188 310.186 55.0947V41.2697H310.161ZM282.959 66.4387L279.774 66.49C277.383 66.5585 275.693 66.9777 274.72 67.7562C273.746 68.5347 273.251 69.4415 273.251 70.4938C273.251 71.1697 273.353 71.7257 273.558 72.162C273.797 72.5984 274.096 72.9577 274.472 73.2229C274.839 73.4966 275.266 73.6934 275.736 73.8303C276.239 73.9329 276.743 73.9843 277.255 73.9843C278.297 73.9843 279.33 73.7276 280.338 73.2229C281.379 72.6839 282.259 71.9225 282.967 70.9472V66.4387H282.959ZM269.716 55.4968C271.27 54.6498 272.747 54.0253 274.165 53.6232C275.616 53.1869 277.213 52.9645 278.963 52.9645C280.312 52.9645 281.541 53.1185 282.651 53.4179C283.795 53.7259 284.777 54.2135 285.58 54.8894C286.391 55.5652 287.014 56.472 287.45 57.627C287.919 58.7391 288.158 60.1079 288.158 61.7249V77.2694H283.966L283.411 74.6858H283.258C282.31 75.7637 281.217 76.5594 279.97 77.0641C278.724 77.5346 277.341 77.7742 275.829 77.7742C273.439 77.7742 271.501 77.1325 270.015 75.8493C268.564 74.566 267.838 72.8636 267.838 70.7333C267.838 69.4159 268.111 68.2866 268.649 67.337C269.187 66.3617 269.947 65.549 270.92 64.9073C271.893 64.2657 273.063 63.7952 274.404 63.4872C275.753 63.1536 277.238 62.9825 278.852 62.9825H282.899V61.1688C282.899 59.646 282.498 58.6023 281.687 58.0291C280.875 57.4217 279.765 57.1137 278.348 57.1137C277.469 57.1137 276.478 57.2677 275.368 57.5671C274.293 57.8409 273.046 58.3627 271.629 59.1412L269.716 55.4968ZM246.937 77.278H241.729V41.2697H246.937V56.1042C248.013 55.223 249.191 54.4873 250.472 53.8799C251.786 53.2724 253.238 52.9645 254.817 52.9645C256.166 52.9645 257.345 53.1698 258.352 53.5719C259.36 53.974 260.188 54.53 260.828 55.2401C261.503 55.9502 261.989 56.7971 262.297 57.7724C262.63 58.7477 262.8 59.8171 262.8 60.9635V77.2694H257.592V62.1269C257.592 60.3389 257.225 59.0557 256.482 58.2772C255.74 57.4987 254.664 57.1137 253.246 57.1137C252.205 57.1137 251.121 57.3874 250.011 57.9264C248.935 58.4312 247.902 59.1412 246.928 60.0566V77.278H246.937ZM230.151 66.4387L226.967 66.49C224.576 66.5585 222.885 66.9777 221.912 67.7562C220.939 68.5347 220.443 69.4415 220.443 70.4938C220.443 71.1697 220.546 71.7257 220.751 72.162C220.99 72.5984 221.289 72.9577 221.664 73.2229C222.032 73.4966 222.458 73.6934 222.928 73.8303C223.432 73.9329 223.936 73.9843 224.448 73.9843C225.489 73.9843 226.523 73.7276 227.53 73.2229C228.572 72.6839 229.451 71.9225 230.16 70.9472V66.4387H230.151ZM216.909 55.4968C218.463 54.6498 219.94 54.0253 221.357 53.6232C222.809 53.1869 224.405 52.9645 226.155 52.9645C227.504 52.9645 228.734 53.1185 229.844 53.4179C230.988 53.7259 231.97 54.2135 232.772 54.8894C233.583 55.5652 234.207 56.472 234.642 57.627C235.112 58.7391 235.351 60.1079 235.351 61.7249V77.2694H231.159L230.604 74.6858H230.45C229.502 75.7637 228.409 76.5594 227.163 77.0641C225.916 77.5346 224.533 77.7742 223.022 77.7742C220.631 77.7742 218.693 77.1325 217.208 75.8493C215.756 74.566 215.03 72.8636 215.03 70.7333C215.03 69.4159 215.304 68.2866 215.842 67.337C216.379 66.3617 217.139 65.549 218.113 64.9073C219.086 64.2657 220.256 63.7952 221.596 63.4872C222.945 63.1536 224.431 62.9825 226.044 62.9825H230.091V61.1688C230.091 59.646 229.69 58.6023 228.879 58.0291C228.068 57.4217 226.958 57.1137 225.541 57.1137C224.661 57.1137 223.671 57.2677 222.561 57.5671C221.485 57.8409 220.239 58.3627 218.821 59.1412L216.909 55.4968ZM194.565 77.278H189.357V53.3751H193.446L194.155 56.5662C195.333 55.4198 196.563 54.5386 197.843 53.9312C199.158 53.2896 200.644 52.973 202.292 52.973C204.819 52.973 206.774 53.666 208.157 55.0519C209.54 56.4378 210.232 58.414 210.232 60.9806V77.2865H205.024V61.6308C205.024 60.2448 204.674 59.1498 203.965 58.3371C203.257 57.5243 202.198 57.1222 200.781 57.1222C199.705 57.1222 198.62 57.396 197.545 57.935C196.503 58.4397 195.504 59.184 194.565 60.1593V77.278V77.278ZM168.404 45.3676H173.561L185.941 77.2694H180.281L177.096 68.9111H164.614L161.48 77.2694H155.871L168.404 45.3676ZM165.98 64.7705H175.636L173.766 59.6032C173.194 58.1831 172.691 56.8656 172.247 55.6508C171.845 54.4017 171.401 52.9816 170.932 51.3989H170.829C170.325 52.8875 169.856 54.2648 169.412 55.5481C168.976 56.7971 168.464 58.1659 167.892 59.646L165.98 64.7705Z" fill="#010101"/>
<path d="M100.698 106.938C100.578 108.743 99.8186 110.351 99.0758 111.951C98.1878 113.85 97.2999 115.741 96.6851 117.743C96.4802 118.41 96.2582 118.941 95.3532 118.658C92.5698 117.769 89.6328 117.931 86.7811 117.478C84.5697 117.127 82.6828 116.306 81.6839 114.081C81.2228 113.055 81.2143 112.482 82.4438 112.045C87.4812 110.232 92.1002 107.622 96.3436 104.363C96.429 104.294 96.5229 104.235 96.6254 104.2C97.4365 103.901 97.7439 102.361 98.7684 102.934C99.8954 103.567 100.467 104.833 100.698 106.151C100.741 106.399 100.698 106.673 100.698 106.938Z" fill="#75C69A"/>
<path d="M11.5272 73.9502C8.91459 74.0785 7.59974 72.3076 6.27635 70.7249C4.55168 68.6803 3.03192 66.4559 1.35847 64.3685C0.88888 63.7782 0.863266 63.4446 1.36701 62.8885C3.39051 60.6556 5.01273 58.1233 6.78863 55.7022C8.25717 53.7003 10.2807 52.956 12.7311 53.3154C13.4653 53.4266 13.7215 53.6832 13.5422 54.496C12.6542 58.5083 12.7311 62.5891 12.7908 66.6613C12.8165 68.3295 13.0555 69.9635 13.3714 71.589C13.7812 73.6422 13.5422 73.9331 11.5272 73.9502Z" fill="#75C69A"/>
<path d="M28.2958 20.0785C28.2019 19.0091 28.5946 17.9055 29.141 16.8447C30.3449 14.5092 31.3694 12.0966 32.1891 9.59854C32.4708 8.74304 32.7868 8.41794 33.8028 8.70882C36.9533 9.6071 40.2917 9.28201 43.4763 10.0776C45.4486 10.5738 46.8061 11.6689 47.4038 13.6536C47.6429 14.4407 47.5319 14.8342 46.6695 15.1593C41.7687 16.9816 37.1667 19.3684 33.0173 22.5766C32.8465 22.7049 32.6501 22.799 32.4794 22.9273C31.7451 23.4749 31.0706 24.7068 30.1827 24.2363C28.9447 23.5775 28.2787 22.2429 28.3043 20.7201C28.2958 20.5576 28.2958 20.395 28.2958 20.0785Z" fill="#75C69A"/>
<path d="M20.5947 99.7266C18.8529 99.624 17.0087 98.4262 15.0535 97.5878C13.4228 96.8863 11.8005 96.1848 10.1015 95.6715C9.39283 95.4576 9.11107 95.1325 9.35014 94.3968C10.2722 91.6164 10.0759 88.6906 10.5369 85.8503C10.887 83.7115 11.6554 81.8722 13.7984 80.837C14.9596 80.2809 15.5658 80.298 16.0525 81.6754C17.8625 86.7058 20.5093 91.2913 23.7708 95.5261C23.805 95.5689 23.8306 95.6202 23.8476 95.663C24.1465 96.4757 25.6748 96.7751 25.1198 97.8017C24.488 98.9567 23.139 99.3844 21.8754 99.7266C21.6363 99.7779 21.346 99.7266 20.5947 99.7266Z" fill="#75C69A"/>
<path d="M20.8422 27.5041C21.5594 27.4698 22.1827 27.5468 22.8059 27.7693C25.3759 28.7103 25.5466 29.3776 23.8817 31.4822C20.5007 35.7683 17.9051 40.4992 16.0182 45.6066C15.6255 46.6674 15.1815 46.8471 14.1911 46.4364C12.3383 45.6836 11.2796 44.3576 10.8527 42.4241C10.1355 39.139 10.2807 35.7255 9.32443 32.4746C9.16221 31.9185 9.52081 31.6533 9.95625 31.5335C12.9275 30.7122 15.5316 29.0269 18.3918 27.9575C19.2029 27.6581 20.0225 27.4014 20.8422 27.5041Z" fill="#75C69A"/>
<path d="M74.862 116.562C74.9559 119.052 73.2996 120.327 71.7969 121.584C69.6624 123.372 67.3657 124.963 65.1799 126.692C64.6335 127.119 64.3091 127.102 63.8224 126.657C61.5854 124.638 59.007 123.073 56.6334 121.242C54.849 119.856 53.8159 118 54.2257 115.63C54.3708 114.8 54.5843 114.295 55.7881 114.518C61.4744 115.57 67.2034 115.579 72.9154 114.595C74.6144 114.295 74.8706 114.578 74.862 116.562Z" fill="#75C69A"/>
<path d="M118.628 73.9497C115.46 73.9411 115.315 73.6673 115.691 71.4516C116.562 66.3442 116.425 61.2197 115.802 56.0952C115.708 55.2911 114.999 54.2645 115.691 53.7426C116.639 53.0325 117.953 53.1181 119.115 53.4945C120.737 54.0164 121.77 55.3167 122.777 56.5572C124.468 58.6275 126.013 60.8262 127.687 62.9136C128.173 63.521 128.122 63.8547 127.636 64.3937C125.646 66.5837 124.092 69.0989 122.308 71.443C121.164 72.9316 119.635 73.8812 118.628 73.9497Z" fill="#75C69A"/>
<path d="M100.766 20.3611C100.809 21.1567 100.519 21.8412 100.151 22.5084C99.0415 24.4847 98.5805 24.536 96.7875 23.133C92.4587 19.7366 87.7458 16.9904 82.5547 15.1254C81.2227 14.6463 81.291 14.0903 81.7606 12.9867C82.6059 11.0275 84.1769 10.1464 86.1065 9.82128C89.1033 9.31653 92.1855 9.33364 95.1482 8.52947C95.6093 8.40114 96.2923 8.23859 96.5057 8.98289C97.5303 12.4905 99.6477 15.5532 100.544 19.1035C100.647 19.5227 100.689 19.9419 100.766 20.3611Z" fill="#75C69A"/>
<path d="M30.3877 102.746C30.7207 103.003 31.0109 103.234 31.3012 103.456C36.0398 107.118 41.1455 110.129 46.8062 112.157C47.5661 112.431 47.6259 112.738 47.4039 113.431C46.6355 115.878 44.7656 117.204 41.6151 117.469C38.9513 117.692 36.296 117.974 33.6833 118.556C33.1113 118.684 32.5819 118.864 32.3856 118.137C31.4805 114.86 29.44 112.054 28.5093 108.803C27.9629 106.912 28.1422 105.082 29.5424 103.542C29.7985 103.277 30.0888 103.037 30.3877 102.746Z" fill="#75C69A"/>
<path d="M74.862 11.0188C74.862 12.5502 74.6486 12.7384 72.4202 12.3962C66.879 11.5407 61.3379 11.4722 55.8308 12.6272C54.8404 12.8325 54.4562 12.4047 54.2684 11.5407C53.7988 9.33345 54.7721 7.66521 56.3431 6.30496C58.8106 4.16619 61.7135 2.5835 64.0956 0.333518C64.4542 -0.000130143 64.736 -0.171231 65.1629 0.256522C67.4425 2.56639 70.3625 4.02931 72.8129 6.09963C74.0595 7.14335 74.9133 8.52927 74.862 11.0188Z" fill="#75C69A"/>
<path d="M108.451 99.7947C107.571 99.7519 107.127 99.7947 106.717 99.7006C105.744 99.4867 104.933 98.9135 104.267 98.2291C103.089 97.0143 104.702 96.5352 105.138 95.9791C108.596 91.5305 111.319 86.6969 113.24 81.4184C113.573 80.503 113.958 80.426 114.769 80.6998C116.826 81.3842 117.877 82.8813 118.329 84.8917C119.063 88.1854 118.824 91.6075 119.721 94.8755C119.849 95.3546 119.499 95.5856 119.132 95.6882C116.049 96.5352 113.368 98.3146 110.38 99.3755C109.612 99.6578 108.826 99.8546 108.451 99.7947Z" fill="#75C69A"/>
<path d="M119.721 32.4238C118.807 35.5464 118.918 38.6262 118.466 41.629C118.124 43.9389 117.082 45.7611 114.692 46.5653C113.94 46.8134 113.565 46.7621 113.257 45.9151C111.2 40.1576 108.16 34.9475 104.233 30.2679C103.669 29.6006 103.883 29.2926 104.395 28.8563C105.94 27.5132 107.767 27.094 109.663 27.6757C112.941 28.6938 115.879 30.593 119.183 31.5854C119.678 31.7308 119.857 32.0901 119.721 32.4238Z" fill="#75C69A"/>
<path d="M64.514 112.388C37.6108 112.388 15.7279 90.4611 15.7279 63.5041C15.7279 36.547 37.6108 14.6204 64.514 14.6204C91.4172 14.6204 113.3 36.547 113.3 63.5041C113.3 90.4611 91.4172 112.388 64.514 112.388ZM64.514 17.9483C39.4464 17.9483 19.0492 38.3864 19.0492 63.5041C19.0492 88.6217 39.4464 109.06 64.514 109.06C89.5815 109.06 109.979 88.6217 109.979 63.5041C109.979 38.3864 89.5815 17.9483 64.514 17.9483Z" fill="#75C69A"/>
<path d="M75.6648 84.8575L70.5761 84.8147V84.8061L60.5952 84.7206L58.0936 80.2891L73.1632 80.4259L78.2518 80.4687L92.9201 80.597L87.1057 70.2967L89.7012 65.9251L99.4516 83.2063C102.619 77.4573 104.421 70.8443 104.421 63.812C104.421 56.7797 102.619 50.1752 99.4516 44.4262L88.2839 63.4185L88.2925 63.427L83.2636 71.9136L83.2892 71.9308L79.7289 77.9877L74.6402 77.945L81.5987 66.1219L87.4216 56.2408L87.4131 56.2322L92.8945 46.9072L81.7695 46.8045L79.2678 42.373L98.3673 42.5441C91.5369 31.5679 79.5752 24.1421 65.8376 23.6203L75.1867 40.1829L81.4194 51.2275L84.3906 56.4974L81.8036 60.8862L76.0405 50.6714L69.7907 39.6097L69.7736 39.6183L64.9667 31.0974L59.9122 39.7124L54.8236 39.6781L64.2836 23.5861C64.2751 23.5861 64.2666 23.5861 64.258 23.5861C50.1362 23.5861 37.722 30.9006 30.5671 41.9452L49.6068 42.1163V42.1334L58.4522 42.1933V42.2019L68.4502 42.2789L70.9433 46.7104L58.8535 46.5992V46.5821L48.7189 46.5136L36.1254 46.4024L41.9312 56.6856L39.3527 61.0744L29.5169 43.6648C26.0847 49.5935 24.1124 56.4717 24.1124 63.812C24.1124 70.8956 25.9481 77.5429 29.1498 83.3261L40.7529 63.5896V63.581L43.3314 59.1923V59.2008L49.3251 49.0117L54.4137 49.0459L45.8416 63.6323L43.2631 68.0211L36.1595 80.0923L47.2589 80.1949L49.7605 84.6265L29.7902 84.4468C36.6974 95.9962 49.2141 103.781 63.575 104.021L52.6464 84.6521H52.6293L50.1277 80.2206H50.1447L44.6719 70.5192L47.2504 66.1304L53.2782 76.8071H53.2696L59.5109 87.8432L64.0531 95.9021L69.1161 87.2871L74.1963 87.3299L64.3776 104.029C78.7129 103.987 91.2722 96.4154 98.3332 85.0542L75.6648 84.8575Z" fill="#75C69A"/>
</svg>
