<svg width="518" height="127" viewBox="0 0 518 127" fill="none" xmlns="http://www.w3.org/2000/svg">
<g clip-path="url(#clip0)">
<path d="M309.161 59.2952C307.743 57.6783 306.044 56.8656 304.055 56.8656C303.176 56.8656 302.339 57.0196 301.528 57.319C300.717 57.627 299.991 58.1146 299.351 58.7905C298.71 59.4663 298.206 60.3304 297.831 61.3741C297.464 62.4178 297.276 63.7011 297.276 65.2239C297.276 66.7467 297.447 68.0471 297.78 69.125C298.147 70.2029 298.625 71.1012 299.197 71.8113C299.769 72.5214 300.426 73.0432 301.169 73.3854C301.946 73.6934 302.74 73.8388 303.543 73.8388C304.755 73.8388 305.814 73.5651 306.727 73.0261C307.675 72.4871 308.478 71.7257 309.152 70.7505V59.2952H309.161ZM309.161 41.2697H314.369V77.278H310.279L309.673 74.643H309.468C308.589 75.6525 307.615 76.431 306.54 76.97C305.464 77.509 304.064 77.7827 302.347 77.7827C300.998 77.7827 299.701 77.5261 298.454 77.0213C297.242 76.4824 296.149 75.6867 295.167 74.643C294.219 73.5993 293.468 72.2989 292.896 70.7419C292.324 69.1849 292.034 67.3969 292.034 65.3779C292.034 63.4872 292.273 61.7847 292.742 60.2619C293.246 58.7391 293.955 57.4388 294.868 56.3608C295.807 55.2829 296.96 54.453 298.309 53.8799C299.658 53.2724 301.186 52.9645 302.911 52.9645C304.089 52.9645 305.233 53.1527 306.352 53.5205C307.462 53.8884 308.409 54.4188 309.186 55.0947V41.2697H309.161ZM281.959 66.4387L278.774 66.49C276.383 66.5585 274.693 66.9777 273.72 67.7562C272.746 68.5347 272.251 69.4415 272.251 70.4938C272.251 71.1697 272.353 71.7257 272.558 72.162C272.797 72.5984 273.096 72.9577 273.472 73.2229C273.839 73.4966 274.266 73.6934 274.736 73.8303C275.239 73.9329 275.743 73.9843 276.255 73.9843C277.297 73.9843 278.33 73.7276 279.338 73.2229C280.379 72.6839 281.259 71.9225 281.967 70.9472V66.4387H281.959ZM268.716 55.4968C270.27 54.6498 271.747 54.0253 273.165 53.6232C274.616 53.1869 276.213 52.9645 277.963 52.9645C279.312 52.9645 280.541 53.1185 281.651 53.4179C282.795 53.7259 283.777 54.2135 284.58 54.8894C285.391 55.5652 286.014 56.472 286.45 57.627C286.919 58.7391 287.158 60.108 287.158 61.7249V77.2694H282.966L282.411 74.6858H282.258C281.31 75.7637 280.217 76.5593 278.97 77.0641C277.724 77.5346 276.341 77.7742 274.829 77.7742C272.439 77.7742 270.501 77.1325 269.015 75.8493C267.564 74.566 266.838 72.8636 266.838 70.7333C266.838 69.4159 267.111 68.2866 267.649 67.337C268.187 66.3617 268.947 65.549 269.92 64.9073C270.893 64.2657 272.063 63.7952 273.404 63.4872C274.753 63.1536 276.238 62.9825 277.852 62.9825H281.899V61.1688C281.899 59.646 281.498 58.6023 280.687 58.0291C279.875 57.4217 278.765 57.1137 277.348 57.1137C276.469 57.1137 275.478 57.2677 274.368 57.5671C273.293 57.8409 272.046 58.3627 270.629 59.1412L268.716 55.4968ZM245.937 77.278H240.729V41.2697H245.937V56.1042C247.013 55.223 248.191 54.4873 249.472 53.8799C250.786 53.2724 252.238 52.9645 253.817 52.9645C255.166 52.9645 256.345 53.1698 257.352 53.5719C258.36 53.974 259.188 54.53 259.828 55.2401C260.503 55.9502 260.989 56.7971 261.297 57.7724C261.63 58.7477 261.8 59.8171 261.8 60.9635V77.2694H256.592V62.1269C256.592 60.3389 256.225 59.0557 255.482 58.2772C254.74 57.4987 253.664 57.1137 252.246 57.1137C251.205 57.1137 250.121 57.3874 249.011 57.9264C247.935 58.4312 246.902 59.1412 245.928 60.0566V77.278H245.937ZM229.151 66.4387L225.967 66.49C223.576 66.5585 221.885 66.9777 220.912 67.7562C219.939 68.5347 219.443 69.4415 219.443 70.4938C219.443 71.1697 219.546 71.7257 219.751 72.162C219.99 72.5984 220.289 72.9577 220.664 73.2229C221.032 73.4966 221.458 73.6934 221.928 73.8303C222.432 73.9329 222.936 73.9843 223.448 73.9843C224.489 73.9843 225.523 73.7276 226.53 73.2229C227.572 72.6839 228.451 71.9225 229.16 70.9472V66.4387H229.151ZM215.909 55.4968C217.463 54.6498 218.94 54.0253 220.357 53.6232C221.809 53.1869 223.405 52.9645 225.155 52.9645C226.504 52.9645 227.734 53.1185 228.844 53.4179C229.988 53.7259 230.97 54.2135 231.772 54.8894C232.583 55.5652 233.207 56.472 233.642 57.627C234.112 58.7391 234.351 60.108 234.351 61.7249V77.2694H230.159L229.604 74.6858H229.45C228.502 75.7637 227.409 76.5593 226.163 77.0641C224.916 77.5346 223.533 77.7742 222.022 77.7742C219.631 77.7742 217.693 77.1325 216.208 75.8493C214.756 74.566 214.03 72.8636 214.03 70.7333C214.03 69.4159 214.304 68.2866 214.842 67.337C215.379 66.3617 216.139 65.549 217.113 64.9073C218.086 64.2657 219.256 63.7952 220.596 63.4872C221.945 63.1536 223.431 62.9825 225.044 62.9825H229.091V61.1688C229.091 59.646 228.69 58.6023 227.879 58.0291C227.068 57.4217 225.958 57.1137 224.541 57.1137C223.661 57.1137 222.671 57.2677 221.561 57.5671C220.485 57.8409 219.239 58.3627 217.821 59.1412L215.909 55.4968ZM193.565 77.278H188.357V53.3751H192.446L193.155 56.5662C194.333 55.4198 195.563 54.5386 196.843 53.9312C198.158 53.2896 199.644 52.973 201.292 52.973C203.819 52.973 205.774 53.666 207.157 55.0519C208.54 56.4378 209.232 58.414 209.232 60.9806V77.2865H204.024V61.6308C204.024 60.2448 203.674 59.1498 202.965 58.3371C202.257 57.5243 201.198 57.1222 199.781 57.1222C198.705 57.1222 197.62 57.396 196.545 57.935C195.503 58.4397 194.504 59.184 193.565 60.1593V77.278ZM167.404 45.3676H172.561L184.941 77.2694H179.281L176.096 68.9111H163.614L160.48 77.2694H154.871L167.404 45.3676ZM164.98 64.7705H174.636L172.766 59.6032C172.194 58.1831 171.691 56.8656 171.247 55.6508C170.845 54.4017 170.401 52.9816 169.932 51.3989H169.829C169.325 52.8875 168.856 54.2648 168.412 55.5481C167.976 56.7971 167.464 58.1659 166.892 59.646L164.98 64.7705Z" fill="#010101"/>
<path d="M510.154 72.821H510.222L514.636 60.2622H518.009L510.256 80.0501C509.983 80.7259 509.693 81.3248 509.377 81.8381C509.061 82.377 508.694 82.8305 508.267 83.1898C507.84 83.5747 507.336 83.8656 506.747 84.0709C506.183 84.2763 505.509 84.3789 504.723 84.3789C504.39 84.3789 504.04 84.3533 503.682 84.3105C503.349 84.2848 502.999 84.2335 502.64 84.1394L502.948 81.3333C503.485 81.513 504.015 81.6071 504.527 81.6071C505.355 81.6071 505.979 81.3675 506.38 80.897C506.781 80.4436 507.157 79.7934 507.49 78.9379L508.497 76.2687L501.658 60.2622H505.193L510.154 72.821ZM498.627 64.3173C498.294 63.7954 497.782 63.3677 497.108 63.034C496.433 62.6747 495.716 62.4951 494.947 62.4951C494.119 62.4951 493.376 62.649 492.728 62.9656C492.096 63.2821 491.558 63.7099 491.114 64.2488C490.661 64.7707 490.32 65.3781 490.072 66.0711C489.85 66.7726 489.739 67.4998 489.739 68.2697C489.739 69.0311 489.85 69.7669 490.072 70.4684C490.32 71.1699 490.67 71.7859 491.114 72.3248C491.566 72.8467 492.113 73.2573 492.762 73.5739C493.411 73.8904 494.153 74.0444 494.982 74.0444C495.793 74.0444 496.518 73.8904 497.176 73.5739C497.85 73.2573 498.397 72.8296 498.824 72.2906L500.95 74.2155C500.275 75.0026 499.43 75.6185 498.422 76.0719C497.415 76.4997 496.262 76.7136 494.982 76.7136C493.744 76.7136 492.599 76.5083 491.541 76.1062C490.508 75.7041 489.611 75.1394 488.843 74.4208C488.083 73.6765 487.477 72.7868 487.024 71.7516C486.597 70.7165 486.384 69.553 486.384 68.2783C486.384 67.0207 486.597 65.8658 487.024 64.8306C487.451 63.7954 488.049 62.9057 488.809 62.1614C489.568 61.4171 490.473 60.8439 491.507 60.4418C492.565 60.0397 493.701 59.8344 494.913 59.8344C496.04 59.8344 497.15 60.0569 498.252 60.5103C499.379 60.9637 500.258 61.6139 500.915 62.4694L498.627 64.3173ZM478.341 68.6376C477.556 68.6376 476.736 68.6718 475.882 68.7403C475.054 68.8087 474.285 68.9456 473.594 69.1423C472.919 69.3477 472.356 69.6471 471.912 70.0577C471.459 70.4598 471.237 71.0073 471.237 71.6746C471.237 72.1452 471.331 72.5387 471.511 72.8552C471.716 73.1718 471.972 73.4284 472.288 73.6338C472.603 73.8391 472.954 73.9845 473.329 74.0701C473.713 74.1385 474.106 74.1727 474.507 74.1727C475.993 74.1727 477.129 73.7364 477.914 72.8552C478.725 71.957 479.127 70.8277 479.127 69.476V68.629H478.341V68.6376ZM479.118 65.9C479.118 64.7108 478.759 63.8296 478.042 63.265C477.325 62.6833 476.369 62.3838 475.182 62.3838C474.285 62.3838 473.432 62.5635 472.621 62.9228C471.835 63.2565 471.169 63.7013 470.631 64.2403L468.949 62.2127C469.735 61.4684 470.691 60.8867 471.809 60.4589C472.954 60.0312 474.183 59.8173 475.481 59.8173C476.625 59.8173 477.615 59.9884 478.443 60.3221C479.297 60.6386 479.997 61.0749 480.535 61.6395C481.073 62.2042 481.474 62.8629 481.748 63.6329C482.021 64.3943 482.149 65.2156 482.149 66.0967V73.0862C482.149 73.6252 482.158 74.1984 482.183 74.8058C482.226 75.3875 482.294 75.8752 482.388 76.2602H479.528C479.349 75.4988 479.255 74.7288 479.255 73.9674H479.152C478.572 74.8229 477.829 75.4902 476.932 75.9607C476.053 76.4313 475.011 76.6708 473.799 76.6708C473.167 76.6708 472.51 76.5767 471.809 76.397C471.135 76.2431 470.52 75.9693 469.957 75.5843C469.393 75.1993 468.924 74.6946 468.539 74.0615C468.181 73.4284 468.002 72.6585 468.002 71.7345C468.002 70.5197 468.326 69.5615 468.975 68.8686C469.624 68.15 470.478 67.611 471.536 67.2517C472.595 66.8667 473.782 66.6186 475.105 66.5074C476.429 66.3962 477.769 66.3363 479.118 66.3363V65.9ZM442.396 62.8971C442.797 62.0416 443.438 61.323 444.317 60.7327C445.214 60.1253 446.272 59.8173 447.485 59.8173C448.561 59.8173 449.525 60.0654 450.379 60.5616C451.259 61.0578 451.942 61.8791 452.437 63.0255C452.975 61.9903 453.726 61.2032 454.691 60.6643C455.656 60.0996 456.714 59.8173 457.858 59.8173C458.891 59.8173 459.779 59.997 460.522 60.3563C461.265 60.6899 461.88 61.1519 462.375 61.7422C462.87 62.3239 463.229 63.0169 463.451 63.804C463.698 64.591 463.818 65.438 463.818 66.3363V76.2602H460.65V67.3885C460.65 66.7384 460.591 66.1138 460.48 65.5321C460.369 64.9504 460.172 64.4285 459.907 63.9751C459.643 63.5217 459.276 63.1623 458.832 62.8971C458.379 62.6234 457.807 62.4951 457.116 62.4951C456.398 62.4951 455.775 62.649 455.263 62.9656C454.742 63.2565 454.324 63.65 453.982 64.1462C453.666 64.6167 453.436 65.1557 453.273 65.7631C453.137 66.3705 453.069 66.9865 453.069 67.6195V76.2602H449.901V66.7469C449.901 66.1138 449.841 65.5407 449.73 65.0274C449.619 64.5055 449.423 64.0692 449.158 63.7099C448.885 63.3249 448.543 63.034 448.117 62.8287C447.69 62.6063 447.16 62.4951 446.537 62.4951C445.367 62.4951 444.394 62.9827 443.608 63.9494C442.849 64.899 442.464 66.1652 442.464 67.765V76.2773H439.297V63.7099C439.297 63.2821 439.288 62.7346 439.263 62.0587C439.237 61.3829 439.203 60.784 439.16 60.2707H442.157C442.2 60.6728 442.234 61.1348 442.259 61.6567C442.285 62.1529 442.294 62.572 442.294 62.9057H442.396V62.8971ZM427.087 63.7099C427.087 63.2821 427.079 62.7346 427.053 62.0587C427.028 61.3829 426.994 60.784 426.951 60.2707H429.948C429.99 60.6728 430.025 61.1519 430.05 61.6909C430.076 62.2127 430.084 62.6405 430.084 62.9741H430.187C430.639 62.0245 431.288 61.2717 432.142 60.7156C433.021 60.1339 433.995 59.8344 435.07 59.8344C435.566 59.8344 435.984 59.8772 436.317 59.9713L436.18 62.9057C435.728 62.7945 435.25 62.7346 434.729 62.7346C433.969 62.7346 433.303 62.88 432.74 63.1709C432.176 63.4447 431.707 63.8125 431.322 64.2831C430.964 64.7536 430.691 65.3097 430.511 65.9342C430.332 66.5416 430.238 67.1832 430.238 67.8591V76.2687H427.07V63.7099H427.087ZM417.995 68.6376C417.209 68.6376 416.389 68.6718 415.536 68.7403C414.707 68.8087 413.939 68.9456 413.247 69.1423C412.573 69.3477 412.009 69.6471 411.565 70.0577C411.113 70.4598 410.891 71.0073 410.891 71.6746C410.891 72.1452 410.985 72.5387 411.164 72.8552C411.369 73.1718 411.625 73.4284 411.941 73.6338C412.257 73.8391 412.607 73.9845 412.983 74.0701C413.367 74.1385 413.76 74.1727 414.161 74.1727C415.647 74.1727 416.782 73.7364 417.568 72.8552C418.379 71.957 418.78 70.8277 418.78 69.476V68.629H417.995V68.6376ZM418.771 65.9C418.771 64.7108 418.413 63.8296 417.696 63.265C416.978 62.6833 416.022 62.3838 414.835 62.3838C413.939 62.3838 413.085 62.5635 412.274 62.9228C411.489 63.2565 410.823 63.7013 410.285 64.2403L408.603 62.2127C409.388 61.4684 410.344 60.8867 411.463 60.4589C412.607 60.0312 413.837 59.8173 415.134 59.8173C416.278 59.8173 417.269 59.9884 418.097 60.3221C418.951 60.6386 419.651 61.0749 420.189 61.6395C420.727 62.2042 421.136 62.8629 421.401 63.6329C421.674 64.3943 421.802 65.2156 421.802 66.0967V73.0862C421.802 73.6252 421.811 74.1984 421.837 74.8058C421.879 75.3875 421.948 75.8752 422.042 76.2602H419.181C419.002 75.4988 418.908 74.7288 418.908 73.9674H418.806C418.225 74.8229 417.482 75.4902 416.586 75.9607C415.706 76.4313 414.665 76.6708 413.452 76.6708C412.82 76.6708 412.163 76.5767 411.463 76.397C410.788 76.2431 410.174 75.9693 409.61 75.5843C409.047 75.1993 408.577 74.6946 408.193 74.0615C407.834 73.4284 407.655 72.6585 407.655 71.7345C407.655 70.5197 407.979 69.5615 408.628 68.8686C409.277 68.15 410.131 67.611 411.19 67.2517C412.248 66.8667 413.435 66.6186 414.759 66.5074C416.082 66.3962 417.422 66.3363 418.771 66.3363V65.9ZM392.457 62.6918C392.842 61.9048 393.49 61.2289 394.413 60.6643C395.335 60.0996 396.368 59.8173 397.512 59.8173C398.545 59.8173 399.433 59.997 400.176 60.3563C400.919 60.6899 401.533 61.1519 402.028 61.7422C402.524 62.3239 402.882 63.0169 403.104 63.804C403.352 64.591 403.471 65.438 403.471 66.3363V76.2602H400.304V67.4228C400.304 66.7726 400.244 66.1481 400.133 65.5663C400.039 64.9846 399.86 64.4627 399.595 64.0093C399.322 63.5559 398.955 63.1966 398.485 62.9314C398.033 62.6576 397.444 62.5293 396.701 62.5293C395.446 62.5293 394.413 63.0169 393.601 63.9836C392.79 64.9332 392.389 66.1994 392.389 67.7992V76.2773H389.221V50.7404H392.389V62.6918H392.457ZM381.478 68.2355C381.478 67.4912 381.367 66.7726 381.145 66.0711C380.923 65.3696 380.581 64.7536 380.137 64.2146C379.693 63.6757 379.13 63.2479 378.455 62.9314C377.806 62.6148 377.038 62.4608 376.167 62.4608C375.356 62.4608 374.613 62.6148 373.947 62.9314C373.298 63.2479 372.735 63.6757 372.265 64.2146C371.795 64.7536 371.42 65.3696 371.155 66.0711C370.907 66.7726 370.788 67.4998 370.788 68.2697C370.788 69.0311 370.907 69.7669 371.155 70.4684C371.428 71.1699 371.795 71.7859 372.265 72.3248C372.735 72.8467 373.298 73.2573 373.947 73.5739C374.622 73.8904 375.364 74.0444 376.167 74.0444C377.046 74.0444 377.806 73.8904 378.455 73.5739C379.13 73.2402 379.693 72.7954 380.137 72.2564C380.581 71.7174 380.923 71.1015 381.145 70.3999C381.367 69.6984 381.478 68.9712 381.478 68.2355ZM370.967 84.3704H367.8V60.2622H370.899V62.7603H371.001C371.522 61.9048 372.274 61.2032 373.255 60.6643C374.263 60.0996 375.433 59.8173 376.756 59.8173C377.943 59.8173 379.027 60.0312 379.992 60.4589C380.982 60.8867 381.819 61.4856 382.519 62.247C383.236 63.0084 383.791 63.9152 384.167 64.9504C384.551 65.9599 384.739 67.0549 384.739 68.2269C384.739 69.399 384.551 70.5026 384.167 71.5378C383.783 72.5729 383.245 73.4712 382.553 74.2412C381.853 75.0026 381.016 75.61 380.026 76.0634C379.036 76.4912 377.926 76.705 376.688 76.705C375.544 76.705 374.468 76.4569 373.452 75.9607C372.444 75.4645 371.642 74.7716 371.061 73.8647H370.959V84.3704H370.967ZM363.573 69.3819H355.753V66.6785H363.573V69.3819ZM352.585 68.1328C352.585 68.3125 352.585 68.4922 352.585 68.6718C352.585 68.8515 352.576 69.0311 352.551 69.2108H339.88C339.906 69.8866 340.051 70.5283 340.316 71.1357C340.606 71.7174 340.99 72.2393 341.46 72.6927C341.93 73.1205 342.467 73.4541 343.074 73.7022C343.705 73.9503 344.363 74.0701 345.063 74.0701C346.139 74.0701 347.069 73.8305 347.863 73.36C348.649 72.8895 349.264 72.3163 349.716 71.6404L351.936 73.4284C351.082 74.5577 350.075 75.3875 348.905 75.9265C347.761 76.4484 346.48 76.705 345.063 76.705C343.851 76.705 342.724 76.4997 341.69 76.0976C340.657 75.6955 339.769 75.1309 339.027 74.4123C338.284 73.668 337.703 72.7782 337.276 71.7431C336.849 70.7079 336.636 69.5615 336.636 68.2954C336.636 67.0549 336.841 65.9171 337.242 64.8819C337.669 63.8211 338.25 62.9228 338.992 62.1785C339.735 61.4342 340.606 60.861 341.622 60.4589C342.63 60.0312 343.723 59.8173 344.892 59.8173C346.062 59.8173 347.112 60.0055 348.06 60.3905C349.025 60.7755 349.836 61.323 350.485 62.0416C351.159 62.7603 351.671 63.6414 352.039 64.6766C352.397 65.7032 352.585 66.8496 352.585 68.1328ZM349.383 66.8496C349.358 66.2165 349.247 65.6348 349.05 65.0958C348.871 64.5312 348.589 64.0521 348.205 63.6414C347.846 63.2393 347.385 62.9228 346.822 62.6918C346.284 62.4437 345.644 62.3239 344.901 62.3239C344.226 62.3239 343.586 62.4437 342.98 62.6918C342.399 62.9143 341.878 63.2308 341.426 63.6414C340.999 64.0435 340.64 64.5312 340.35 65.0958C340.077 65.6348 339.923 66.2251 339.88 66.8496H349.383Z" fill="#75C69A"/>
<path d="M99.698 106.938C99.5785 108.743 98.8186 110.351 98.0758 111.951C97.1878 113.85 96.2999 115.741 95.6851 117.743C95.4802 118.41 95.2582 118.941 94.3532 118.658C91.5698 117.769 88.6328 117.931 85.7811 117.478C83.5697 117.127 81.6828 116.306 80.6839 114.081C80.2228 113.055 80.2143 112.482 81.4438 112.045C86.4812 110.232 91.1002 107.622 95.3436 104.363C95.429 104.294 95.5229 104.235 95.6254 104.2C96.4365 103.901 96.7439 102.361 97.7684 102.934C98.8954 103.567 99.4675 104.833 99.698 106.151C99.7407 106.399 99.698 106.673 99.698 106.938Z" fill="#75C69A"/>
<path d="M10.5272 73.9502C7.91456 74.0785 6.59971 72.3076 5.27632 70.7249C3.55165 68.6803 2.03189 66.4559 0.358439 64.3685C-0.111151 63.7782 -0.136765 63.4446 0.366977 62.8885C2.39048 60.6556 4.0127 58.1233 5.7886 55.7022C7.25714 53.7003 9.28064 52.956 11.731 53.3154C12.4653 53.4266 12.7215 53.6832 12.5422 54.496C11.6542 58.5083 11.731 62.5891 11.7908 66.6613C11.8164 68.3295 12.0555 69.9635 12.3714 71.589C12.7812 73.6422 12.5422 73.9331 10.5272 73.9502Z" fill="#75C69A"/>
<path d="M27.2958 20.0785C27.2019 19.0091 27.5946 17.9055 28.141 16.8447C29.3449 14.5092 30.3694 12.0966 31.1891 9.59854C31.4708 8.74304 31.7868 8.41794 32.8028 8.70882C35.9533 9.6071 39.2917 9.28201 42.4763 10.0776C44.4486 10.5738 45.8061 11.6689 46.4038 13.6536C46.6429 14.4407 46.5319 14.8342 45.6695 15.1593C40.7687 16.9816 36.1667 19.3684 32.0173 22.5766C31.8465 22.7049 31.6501 22.799 31.4794 22.9273C30.7451 23.4749 30.0706 24.7068 29.1827 24.2363C27.9447 23.5775 27.2787 22.2429 27.3043 20.7201C27.2958 20.5576 27.2958 20.395 27.2958 20.0785Z" fill="#75C69A"/>
<path d="M19.5947 99.7266C17.8529 99.624 16.0087 98.4262 14.0535 97.5878C12.4228 96.8863 10.8005 96.1848 9.10148 95.6715C8.39283 95.4576 8.11107 95.1325 8.35014 94.3968C9.27224 91.6164 9.07587 88.6906 9.53692 85.8503C9.88697 83.7115 10.6554 81.8722 12.7984 80.837C13.9596 80.2809 14.5658 80.298 15.0525 81.6754C16.8625 86.7058 19.5093 91.2913 22.7708 95.5261C22.805 95.5689 22.8306 95.6202 22.8476 95.663C23.1465 96.4757 24.6748 96.7751 24.1198 97.8017C23.488 98.9567 22.139 99.3844 20.8754 99.7266C20.6363 99.7779 20.346 99.7266 19.5947 99.7266Z" fill="#75C69A"/>
<path d="M19.8422 27.5041C20.5594 27.4698 21.1827 27.5468 21.8059 27.7693C24.3759 28.7103 24.5466 29.3776 22.8817 31.4822C19.5007 35.7683 16.9051 40.4992 15.0182 45.6066C14.6255 46.6674 14.1815 46.8471 13.1911 46.4364C11.3383 45.6836 10.2796 44.3576 9.85274 42.4241C9.13554 39.139 9.28069 35.7255 8.32443 32.4746C8.16221 31.9185 8.52081 31.6533 8.95625 31.5335C11.9275 30.7122 14.5316 29.0269 17.3918 27.9575C18.2029 27.6581 19.0225 27.4014 19.8422 27.5041Z" fill="#75C69A"/>
<path d="M73.862 116.562C73.9559 119.052 72.2996 120.327 70.7969 121.584C68.6624 123.372 66.3657 124.963 64.1799 126.692C63.6335 127.119 63.3091 127.102 62.8224 126.657C60.5854 124.638 58.007 123.073 55.6334 121.242C53.849 119.856 52.8159 118 53.2257 115.63C53.3708 114.8 53.5843 114.295 54.7881 114.518C60.4744 115.57 66.2034 115.579 71.9154 114.595C73.6144 114.295 73.8706 114.578 73.862 116.562Z" fill="#75C69A"/>
<path d="M117.628 73.9497C114.46 73.9411 114.315 73.6673 114.691 71.4516C115.562 66.3442 115.425 61.2197 114.802 56.0952C114.708 55.2911 113.999 54.2645 114.691 53.7426C115.639 53.0325 116.953 53.1181 118.115 53.4945C119.737 54.0164 120.77 55.3167 121.777 56.5572C123.468 58.6275 125.013 60.8262 126.687 62.9136C127.173 63.521 127.122 63.8547 126.636 64.3937C124.646 66.5837 123.092 69.0989 121.308 71.443C120.164 72.9316 118.635 73.8812 117.628 73.9497Z" fill="#75C69A"/>
<path d="M99.7662 20.3611C99.8089 21.1567 99.5186 21.8412 99.1515 22.5084C98.0415 24.4847 97.5805 24.536 95.7875 23.133C91.4587 19.7366 86.7458 16.9904 81.5547 15.1254C80.2227 14.6463 80.291 14.0903 80.7606 12.9867C81.6059 11.0275 83.1769 10.1464 85.1065 9.82128C88.1033 9.31653 91.1855 9.33364 94.1482 8.52947C94.6093 8.40114 95.2923 8.23859 95.5057 8.98289C96.5303 12.4905 98.6477 15.5532 99.5442 19.1035C99.6467 19.5227 99.6894 19.9419 99.7662 20.3611Z" fill="#75C69A"/>
<path d="M29.3877 102.746C29.7207 103.003 30.0109 103.234 30.3012 103.456C35.0398 107.118 40.1455 110.129 45.8062 112.157C46.5661 112.431 46.6259 112.738 46.4039 113.431C45.6355 115.878 43.7656 117.204 40.6151 117.469C37.9513 117.692 35.296 117.974 32.6833 118.556C32.1113 118.684 31.5819 118.864 31.3856 118.137C30.4805 114.86 28.44 112.054 27.5093 108.803C26.9629 106.912 27.1422 105.082 28.5424 103.542C28.7985 103.277 29.0888 103.037 29.3877 102.746Z" fill="#75C69A"/>
<path d="M73.862 11.0188C73.862 12.5502 73.6486 12.7384 71.4202 12.3962C65.879 11.5407 60.3379 11.4722 54.8308 12.6272C53.8404 12.8325 53.4562 12.4047 53.2684 11.5407C52.7988 9.33345 53.7721 7.66521 55.3431 6.30496C57.8106 4.16619 60.7135 2.5835 63.0956 0.333518C63.4542 -0.000130143 63.736 -0.171231 64.1629 0.256522C66.4425 2.56639 69.3625 4.02931 71.8129 6.09963C73.0595 7.14335 73.9133 8.52927 73.862 11.0188Z" fill="#75C69A"/>
<path d="M107.451 99.7947C106.571 99.7519 106.127 99.7947 105.717 99.7006C104.744 99.4867 103.933 98.9135 103.267 98.2291C102.089 97.0143 103.702 96.5352 104.138 95.9791C107.596 91.5305 110.319 86.6969 112.24 81.4184C112.573 80.503 112.958 80.426 113.769 80.6998C115.826 81.3842 116.876 82.8813 117.329 84.8917C118.063 88.1854 117.824 91.6075 118.721 94.8755C118.849 95.3546 118.499 95.5856 118.132 95.6882C115.049 96.5352 112.368 98.3146 109.38 99.3755C108.612 99.6578 107.826 99.8546 107.451 99.7947Z" fill="#75C69A"/>
<path d="M118.721 32.4238C117.807 35.5464 117.918 38.6262 117.466 41.629C117.124 43.9389 116.082 45.7611 113.692 46.5653C112.94 46.8134 112.565 46.7621 112.257 45.9151C110.2 40.1576 107.16 34.9475 103.233 30.2679C102.669 29.6006 102.883 29.2926 103.395 28.8563C104.94 27.5132 106.767 27.094 108.663 27.6757C111.941 28.6938 114.879 30.593 118.183 31.5854C118.678 31.7308 118.857 32.0901 118.721 32.4238Z" fill="#75C69A"/>
<path d="M63.514 112.388C36.6108 112.388 14.7279 90.4611 14.7279 63.5041C14.7279 36.547 36.6108 14.6204 63.514 14.6204C90.4172 14.6204 112.3 36.547 112.3 63.5041C112.3 90.4611 90.4172 112.388 63.514 112.388ZM63.514 17.9483C38.4464 17.9483 18.0492 38.3864 18.0492 63.5041C18.0492 88.6217 38.4464 109.06 63.514 109.06C88.5815 109.06 108.979 88.6217 108.979 63.5041C108.979 38.3864 88.5815 17.9483 63.514 17.9483Z" fill="#75C69A"/>
<path d="M74.6648 84.8575L69.5762 84.8147V84.8061L59.5953 84.7206L57.0936 80.2891L72.1632 80.4259L77.2518 80.4687L91.9201 80.597L86.1057 70.2967L88.7013 65.9251L98.4517 83.2063C101.619 77.4573 103.421 70.8443 103.421 63.812C103.421 56.7797 101.619 50.1752 98.4517 44.4262L87.284 63.4185L87.2925 63.427L82.2636 71.9136L82.2892 71.9308L78.7289 77.9877L73.6403 77.945L80.5987 66.1219L86.4216 56.2408L86.4131 56.2322L91.8945 46.9072L80.7695 46.8045L78.2679 42.373L97.3673 42.5441C90.5369 31.5679 78.5752 24.1421 64.8376 23.6203L74.1867 40.1829L80.4194 51.2275L83.3906 56.4974L80.8036 60.8862L75.0405 50.6714L68.7907 39.6097L68.7736 39.6183L63.9667 31.0974L58.9122 39.7124L53.8236 39.6781L63.2837 23.5861C63.2751 23.5861 63.2666 23.5861 63.2581 23.5861C49.1362 23.5861 36.722 30.9006 29.5671 41.9452L48.6069 42.1163V42.1334L57.4522 42.1933V42.2019L67.4502 42.2789L69.9433 46.7104L57.8535 46.5992V46.5821L47.7189 46.5136L35.1254 46.4024L40.9312 56.6856L38.3527 61.0744L28.517 43.6648C25.0847 49.5935 23.1124 56.4717 23.1124 63.812C23.1124 70.8956 24.9481 77.5429 28.1498 83.3261L39.753 63.5896V63.581L42.3314 59.1923V59.2008L48.3251 49.0117L53.4138 49.0459L44.8416 63.6323L42.2631 68.0211L35.1595 80.0923L46.2589 80.1949L48.7606 84.6265L28.7902 84.4468C35.6974 95.9962 48.2141 103.781 62.575 104.021L51.6464 84.6521H51.6293L49.1277 80.2206H49.1448L43.6719 70.5192L46.2504 66.1304L52.2782 76.8071H52.2697L58.5109 87.8432L63.0532 95.9021L68.1162 87.2871L73.1963 87.3299L63.3776 104.029C77.7129 103.987 90.2723 96.4154 97.3332 85.0542L74.6648 84.8575Z" fill="#75C69A"/>
</g>
<defs>
<clipPath id="clip0">
<rect width="518" height="127" fill="white"/>
</clipPath>
</defs>
</svg>
