<svg width="296" height="88" viewBox="0 0 296 88" fill="none" xmlns="http://www.w3.org/2000/svg">
<path d="M294.032 77.604C294.032 82.2617 290.268 86.0375 285.626 86.0375C285.626 86.0375 285.626 86.0375 285.614 86.0375H10.3738C5.73157 86.0375 1.9559 82.2741 1.9559 77.604V10.3961C1.9559 5.73833 5.73157 1.96246 10.3738 1.96246H285.614C290.256 1.96246 294.019 5.73833 294.019 10.3961L294.032 77.604Z" fill="white"/>
<path d="M285.626 88H10.3738C4.65459 88 0.0123792 83.3547 0 77.6164V10.396C0.0123792 4.65773 4.65459 0 10.3738 0H285.614C291.333 0.0124206 295.975 4.65773 295.988 10.396V77.604C296 83.3423 291.333 88 285.626 88Z" fill="#A6A5A5"/>
<path d="M294.032 77.604C294.032 82.2617 290.268 86.0375 285.626 86.0375C285.626 86.0375 285.626 86.0375 285.614 86.0375H10.3738C5.73157 86.0375 1.9559 82.2741 1.9559 77.604V10.3961C1.9559 5.73833 5.73157 1.96246 10.3738 1.96246H285.614C290.256 1.96246 294.019 5.73833 294.019 10.3961L294.032 77.604Z" fill="#020202"/>
<path opacity="0.1" d="M285.626 0H138.189L195.939 88H285.626C291.345 88 295.988 83.3423 296 77.604V10.396C295.988 4.65773 291.345 0 285.626 0Z" fill="white"/>
<path d="M104.592 26.6049C104.592 28.3313 104.159 29.8342 103.094 30.9024C101.807 32.1941 100.309 32.84 98.3778 32.84C96.4467 32.84 94.9488 32.1941 93.6614 30.9024C92.3739 29.6106 91.7302 28.1078 91.7302 26.1701C91.7302 24.2325 92.3739 22.7296 93.6614 21.4379C94.9488 20.1461 96.4467 19.5003 98.3778 19.5003C99.232 19.5003 100.099 19.7114 100.953 20.1461C101.807 20.5809 102.451 21.0032 102.884 21.649L101.807 22.7296C100.953 21.649 99.8757 21.2267 98.3778 21.2267C97.0904 21.2267 95.803 21.6615 94.9488 22.7296C93.8718 23.5867 93.4509 24.8784 93.4509 26.3813C93.4509 27.8842 93.8842 29.1759 94.9488 30.033C96.0258 30.89 97.0904 31.5358 98.3778 31.5358C99.8757 31.5358 100.953 31.1011 102.017 30.033C102.661 29.3871 103.094 28.5301 103.094 27.4495H98.3778V25.723H104.592V26.6049ZM114.446 21.2267H108.653V25.3131H114.013V26.816H108.653V30.9024H114.446V32.6289H106.944V19.7238H114.446V21.2267ZM121.527 32.6289H119.806V21.2267H116.167V19.7238H125.167V21.2267H121.527V32.6289ZM131.393 32.6289V19.7238H133.114V32.6289H131.393ZM140.393 32.6289H138.672V21.2267H135.033V19.7238H143.822V21.2267H140.183V32.6289H140.393ZM160.757 30.9024C159.469 32.1941 157.972 32.84 156.04 32.84C154.109 32.84 152.611 32.1941 151.324 30.9024C150.036 29.6106 149.393 28.1078 149.393 26.1701C149.393 24.2325 150.036 22.7296 151.324 21.4379C152.611 20.1461 154.109 19.5003 156.04 19.5003C157.972 19.5003 159.469 20.1461 160.757 21.4379C162.044 22.7296 162.688 24.2325 162.688 26.1701C162.688 28.1078 162.044 29.6106 160.757 30.9024ZM152.611 29.8218C153.465 30.6788 154.753 31.3247 156.04 31.3247C157.328 31.3247 158.615 30.89 159.469 29.8218C160.324 28.9648 160.967 27.673 160.967 26.1701C160.967 24.6672 160.534 23.3755 159.469 22.5185C158.615 21.6615 157.328 21.0156 156.04 21.0156C154.753 21.0156 153.465 21.4503 152.611 22.5185C151.757 23.3755 151.113 24.6672 151.113 26.1701C151.113 27.673 151.534 28.9648 152.611 29.8218ZM165.04 32.6289V19.7238H166.971L173.186 29.8342V19.7238H174.906V32.6289H173.186L166.538 22.0838V32.6289H165.04Z" fill="white"/>
<path d="M148.972 48.7508C143.822 48.7508 139.749 52.6261 139.749 58.0042C139.749 63.1712 143.822 67.2576 148.972 67.2576C154.122 67.2576 158.194 63.3823 158.194 58.0042C158.182 52.4149 154.109 48.7508 148.972 48.7508ZM148.972 63.3823C146.186 63.3823 143.822 61.0224 143.822 57.793C143.822 54.5637 146.174 52.2038 148.972 52.2038C151.757 52.2038 154.122 54.3525 154.122 57.793C154.109 61.01 151.757 63.3823 148.972 63.3823ZM129.029 48.7508C123.879 48.7508 119.806 52.6261 119.806 58.0042C119.806 63.1712 123.879 67.2576 129.029 67.2576C134.179 67.2576 138.251 63.3823 138.251 58.0042C138.251 52.4149 134.179 48.7508 129.029 48.7508ZM129.029 63.3823C126.244 63.3823 123.879 61.0224 123.879 57.793C123.879 54.5637 126.231 52.2038 129.029 52.2038C131.827 52.2038 134.179 54.3525 134.179 57.793C134.179 61.01 131.814 63.3823 129.029 63.3823ZM105.236 51.5455V55.4207H114.458C114.248 57.5695 113.381 59.2959 112.317 60.3641C111.029 61.6559 108.888 63.1588 105.248 63.1588C99.4548 63.1588 95.1716 58.6377 95.1716 52.8372C95.1716 47.0368 99.6777 42.5157 105.248 42.5157C108.244 42.5157 110.609 43.8074 112.317 45.3103L115.102 42.5157C112.75 40.3669 109.742 38.6405 105.459 38.6405C97.7465 38.6405 91.0988 45.0992 91.0988 52.8372C91.0988 60.5753 97.7465 67.034 105.459 67.034C109.742 67.034 112.75 65.7422 115.325 62.9476C117.9 60.3641 118.754 56.7125 118.754 53.9178C118.754 53.0608 118.754 52.1914 118.544 51.5579L105.236 51.5455ZM202.562 54.5637C201.707 52.4149 199.566 48.7508 194.849 48.7508C190.133 48.7508 186.27 52.4025 186.27 58.0042C186.27 63.1712 190.133 67.2576 195.27 67.2576C199.343 67.2576 201.918 64.6741 202.772 63.1712L199.776 61.0224C198.699 62.5253 197.424 63.6059 195.27 63.6059C193.129 63.6059 191.841 62.7489 190.764 60.8113L202.982 55.6443L202.562 54.5637ZM190.133 57.5695C190.133 54.129 192.918 52.1914 194.849 52.1914C196.347 52.1914 197.845 53.0484 198.278 54.129L190.133 57.5695ZM180.056 66.3881H184.129V39.5099H180.056V66.3881ZM173.619 50.6885C172.542 49.6079 170.834 48.5397 168.692 48.5397C164.186 48.5397 159.903 52.6261 159.903 57.793C159.903 62.96 163.975 66.8228 168.692 66.8228C170.834 66.8228 172.554 65.7422 173.408 64.6741H173.619V65.9658C173.619 69.4063 171.688 71.3439 168.692 71.3439C166.34 71.3439 164.619 69.6175 164.186 68.1146L160.757 69.6175C161.834 71.9774 164.396 74.9956 168.902 74.9956C173.619 74.9956 177.481 72.201 177.481 65.5311V49.1856H173.619V50.6885ZM168.902 63.3823C166.117 63.3823 163.753 61.0224 163.753 57.793C163.753 54.5637 166.105 52.2038 168.902 52.2038C171.688 52.2038 173.829 54.5637 173.829 57.793C173.829 61.01 171.688 63.3823 168.902 63.3823ZM221.217 39.5099H211.574V66.4005H215.646V56.2902H221.217C225.723 56.2902 230.006 53.0608 230.006 47.9062C230.006 42.7517 225.711 39.5099 221.217 39.5099ZM221.427 52.4149H215.634V43.1616H221.427C224.423 43.1616 226.144 45.7451 226.144 47.6827C225.934 50.0426 224.213 52.4149 221.427 52.4149ZM246.087 48.5397C243.091 48.5397 240.083 49.8314 239.018 52.6261L242.658 54.129C243.512 52.6261 244.8 52.1914 246.297 52.1914C248.439 52.1914 250.37 53.4831 250.581 55.6319V55.843C249.937 55.4083 248.229 54.7624 246.508 54.7624C242.646 54.7624 238.796 56.9112 238.796 60.7864C238.796 64.4381 242.014 66.8104 245.443 66.8104C248.229 66.8104 249.516 65.5187 250.593 64.2269H250.803V66.3757H254.666V56.0542C254.232 51.3343 250.581 48.5397 246.087 48.5397ZM245.654 63.3823C244.366 63.3823 242.435 62.7365 242.435 61.0224C242.435 58.8736 244.787 58.2278 246.718 58.2278C248.439 58.2278 249.293 58.6625 250.358 59.0848C249.937 61.6559 247.795 63.3823 245.654 63.3823ZM268.159 49.1856L263.653 60.7988H263.443L258.726 49.1856H254.443L261.511 65.5311L257.439 74.5609H261.511L272.442 49.1856H268.159ZM232.148 66.3881H236.221V39.5099H232.148V66.3881Z" fill="white"/>
<path d="M31.8518 17.8608C31.2081 18.5067 30.9976 19.5873 30.9976 20.8666V68.4003C30.9976 69.692 31.4309 70.7602 32.0746 71.406L32.2851 71.6172L58.8633 44.9626V44.5278L31.8518 17.8608Z" fill="url(#paint0_linear)"/>
<path d="M67.4421 53.9924L58.6528 45.1737V44.5279L67.4421 35.7092L67.6525 35.9204L78.1625 41.9444C81.1583 43.6708 81.1583 46.4655 78.1625 48.1795L67.4421 53.9924Z" fill="url(#paint1_linear)"/>
<path d="M67.6525 53.7812L58.6528 44.7514L31.8518 71.6296C32.9288 72.7102 34.4267 72.7102 36.3578 71.8407L67.6525 53.7812Z" fill="url(#paint2_linear)"/>
<path d="M67.6525 35.7092L36.3578 17.8608C34.4267 16.7802 32.9288 17.0038 31.8518 18.072L58.6528 44.739L67.6525 35.7092Z" fill="url(#paint3_linear)"/>
<defs>
<linearGradient id="paint0_linear" x1="44.9332" y1="17.7007" x2="44.9332" y2="71.2302" gradientUnits="userSpaceOnUse">
<stop stop-color="#2A7CAF"/>
<stop offset="0.286" stop-color="#4B92B4"/>
<stop offset="0.767" stop-color="#7ABDBB"/>
<stop offset="1" stop-color="#88CFBD"/>
</linearGradient>
<linearGradient id="paint1_linear" x1="72.5255" y1="38.2825" x2="65.9827" y2="53.0323" gradientUnits="userSpaceOnUse">
<stop stop-color="#F58979"/>
<stop offset="0.119" stop-color="#F6917B"/>
<stop offset="0.713" stop-color="#FBB877"/>
<stop offset="1" stop-color="#FEC974"/>
</linearGradient>
<linearGradient id="paint2_linear" x1="62.849" y1="49.509" x2="33.4962" y2="73.1675" gradientUnits="userSpaceOnUse">
<stop stop-color="#EB423D"/>
<stop offset="0.167" stop-color="#D94553"/>
<stop offset="0.575" stop-color="#B0497B"/>
<stop offset="0.862" stop-color="#964C93"/>
<stop offset="1" stop-color="#894C9E"/>
</linearGradient>
<linearGradient id="paint3_linear" x1="35.6512" y1="19.1529" x2="63.7229" y2="40.5181" gradientUnits="userSpaceOnUse">
<stop stop-color="#55C1AD"/>
<stop offset="1" stop-color="#DDE79A"/>
</linearGradient>
</defs>
</svg>
